<?xml version="1.0" encoding="utf-8"?>
<!-- Generator: Adobe Illustrator 16.0.0, SVG Export Plug-In . SVG Version: 6.00 Build 0)  -->
<!DOCTYPE svg PUBLIC "-//W3C//DTD SVG 1.1//EN" "http://www.w3.org/Graphics/SVG/1.1/DTD/svg11.dtd">
<svg version="1.1" id="Calque_1" xmlns="http://www.w3.org/2000/svg" xmlns:xlink="http://www.w3.org/1999/xlink" x="0px" y="0px"
	 width="797px" height="798px" viewBox="0 0 797 798" enable-background="new 0 0 797 798" xml:space="preserve">
<path fill="#FFFFFF" d="M224.537,460.505c40.664-1.107,66.538,11.698,66.148,19.918c-0.389,8.22-24.902,14.228-24.902,14.228
	s6.226,0.948,6.614,5.69c0.39,4.743-14.394,7.831-22.957,7.588c-27.819-0.79-22.568-8.536-22.568-8.536s-23.346-0.632-42.413-3.794
	c-19.065-3.161-30.84-11.114-29.96-16.44C156.64,466.194,196.125,461.278,224.537,460.505z"/>
<path fill="#FFFFFF" d="M118.566,265.606c-53.217-1.201-87.078,12.691-86.569,21.609c0.51,8.917,32.591,15.435,32.591,15.435
	s-8.147,1.029-8.656,6.174c-0.51,5.146,18.837,8.496,30.045,8.232c36.407-0.857,29.535-9.261,29.535-9.261
	s30.553-0.687,55.506-4.116c24.952-3.43,40.361-12.058,39.211-17.836C207.426,271.779,155.75,266.445,118.566,265.606z"/>
<path fill="#FFFFFF" d="M712.037,499.827c-37.771-1.201-61.805,12.69-61.443,21.609c0.361,8.917,23.132,15.435,23.132,15.435
	s-5.783,1.029-6.144,6.174c-0.361,5.146,13.369,8.496,21.324,8.232c25.841-0.858,20.962-9.262,20.962-9.262
	s21.685-0.686,39.396-4.115c17.711-3.431,28.647-12.058,27.83-17.836C775.105,506,738.428,500.666,712.037,499.827z"/>
<path fill="#FFFFFF" d="M337.746,183.588c23.68,0.564,38.746-5.964,38.52-10.155c-0.227-4.19-14.502-7.254-14.502-7.254
	s3.625-0.483,3.852-2.901c0.228-2.418-8.381-3.992-13.367-3.869c-16.201,0.403-13.143,4.353-13.143,4.353
	s-13.596,0.322-24.697,1.935c-11.104,1.611-17.96,5.666-17.447,8.383C298.208,180.688,321.201,183.194,337.746,183.588z"/>
<path fill="#FFFFFF" d="M486.152,12.205c0,0-20.835-2.688-32.093-2.353c-11.257,0.336-40.493,4.032-42.173,12.938
	c-1.87,9.907,33.771,13.302,48.222,13.105c49.566-0.672,47.718-13.273,47.718-13.273s10.586,1.512,17.139-0.168
	c6.553-1.681,16.634-3.192,16.802-8.065c0.168-4.872-17.312-8.781-25.539-9.073C492.537,4.476,486.152,12.205,486.152,12.205z"/>
<path fill="#FFFFFF" d="M539.377,666.252c0,0,17.926-4.81,27.61-4.208c9.686,0.601,34.838,7.215,36.284,23.148
	c1.608,17.728-29.057,23.8-41.488,23.45c-42.644-1.203-41.054-23.751-41.054-23.751s-9.106,2.706-14.745-0.3
	c-5.637-3.007-14.311-5.713-14.455-14.432c-0.145-8.718,14.894-15.711,21.973-16.234
	C533.884,652.424,539.377,666.252,539.377,666.252z"/>
<path fill="#FFFFFF" d="M720.709,98.355c0,0-20.835-2.217-32.093-1.939c-11.257,0.277-40.493,3.325-42.173,10.668
	c-1.87,8.17,33.771,10.969,48.222,10.807c49.565-0.555,47.718-10.945,47.718-10.945s10.586,1.247,17.139-0.139
	c6.553-1.385,16.634-2.632,16.802-6.65c0.168-4.018-17.312-7.24-25.539-7.48C727.094,91.982,720.709,98.355,720.709,98.355z"/>
<path fill="#FFFFFF" d="M235.129,110.776c0,0,8.288-2.681,8.288-6.049c0-7.169-41.669-11.201-41.669-11.201s2.24-1.792,2.465-5.376
	c0.224-3.585-11.426-7.842-19.49-8.289c-8.065-0.448-17.923,4.256-18.818,8.289c-0.896,4.032,2.24,5.824,2.24,5.824
	s-37.936,2.439-38.085,10.978c-0.225,12.77,73.257,10.528,73.257,10.528s-1.045-3.227-0.561,2.354
	c0.449,5.152,13.105,7.504,20.723,6.832c10.287-0.907,18.146-2.464,18.371-7.393C242.072,112.345,235.129,110.776,235.129,110.776z"
	/>
<path fill="#FFFFFF" d="M540.254,407.837c0,0,8.289-2.681,8.289-6.049c0-7.169-41.67-11.201-41.67-11.201s2.241-1.792,2.465-5.377
	s-11.426-7.841-19.49-8.289s-17.922,4.257-18.818,8.289s2.24,5.825,2.24,5.825s-37.935,2.438-38.084,10.977
	c-0.225,12.77,73.256,10.529,73.256,10.529s-1.045-3.227-0.561,2.353c0.449,5.153,13.106,7.505,20.724,6.833
	c10.287-0.908,18.146-2.464,18.37-7.393C547.198,409.405,540.254,407.837,540.254,407.837z"/>
<path fill="#FFFFFF" d="M160.643,746.566c0,0-7.17-2.682-7.17-6.049c0-7.169,36.043-11.201,36.043-11.201s-1.938-1.793-2.131-5.377
	c-0.194-3.585,9.883-7.841,16.859-8.289s15.502,4.256,16.277,8.289c0.775,4.032-1.938,5.824-1.938,5.824s32.814,2.439,32.943,10.978
	c0.193,12.77-63.368,10.529-63.368,10.529s0.905-3.228,0.485,2.353c-0.389,5.152-11.337,7.505-17.926,6.833
	c-8.898-0.908-15.696-2.464-15.89-7.394C154.635,748.135,160.643,746.566,160.643,746.566z"/>
</svg>
