<?xml version="1.0" encoding="utf-8"?>
<!-- Generator: Adobe Illustrator 16.0.0, SVG Export Plug-In . SVG Version: 6.00 Build 0)  -->
<!DOCTYPE svg PUBLIC "-//W3C//DTD SVG 1.1//EN" "http://www.w3.org/Graphics/SVG/1.1/DTD/svg11.dtd">
<svg version="1.1" id="Calque_1" xmlns="http://www.w3.org/2000/svg" xmlns:xlink="http://www.w3.org/1999/xlink" x="0px" y="0px"
	 width="438.5px" height="185px" viewBox="0 0 438.5 185" enable-background="new 0 0 438.5 185" xml:space="preserve">
<g>
	<path fill="#244C70" stroke="#244C70" stroke-width="1.8258" stroke-miterlimit="10" d="M163.184,14.823l-2.849-0.766
		c1.119-4.16,4.396-7.436,8.553-8.55c4.261-1.141,8.745,0.177,11.739,3.194l0.195-2.235c0.043-0.485,0.474-0.848,0.959-0.805
		l1.176,0.103c0.484,0.043,0.847,0.474,0.805,0.959l-0.644,7.346c-0.015,0.162-0.157,0.282-0.319,0.268l-7.346-0.643
		c-0.485-0.042-0.847-0.474-0.805-0.959l0.102-1.175c0.043-0.485,0.475-0.847,0.959-0.804l3.06,0.268
		c-2.26-2.459-5.778-3.562-9.118-2.667C166.509,9.199,164.029,11.676,163.184,14.823z M174.385,26.021
		c-3.34,0.895-6.857-0.208-9.118-2.667l3.06,0.268c0.485,0.043,0.916-0.319,0.959-0.804l0.103-1.175
		c0.043-0.485-0.319-0.916-0.804-0.959l-7.347-0.642c-0.161-0.014-0.306,0.106-0.32,0.268l-0.642,7.346
		c-0.044,0.485,0.319,0.916,0.804,0.959l1.176,0.103c0.484,0.043,0.916-0.319,0.959-0.804l0.196-2.243
		c2.272,2.292,5.399,3.608,8.641,3.608c1.029,0,2.07-0.132,3.097-0.407c4.157-1.114,7.436-4.391,8.555-8.55l-2.849-0.766
		C180.007,22.701,177.528,25.179,174.385,26.021z"/>
</g>
<g>
	<g>
		<g>
			<path fill="#244C70" d="M101,52c0-1.1-0.9-2-2-2H87c-1.1,0-2,0.9-2,2v26c0,1.1,0.9,2,2,2h12c1.1,0,2-0.9,2-2V52z"/>
		</g>
		<g>
			<path fill="#FFFFFF" d="M101,49c0-1.1-0.9-2-2-2H87c-1.1,0-2,0.9-2,2v26c0,1.1,0.9,2,2,2h12c1.1,0,2-0.9,2-2V49z"/>
		</g>
		<g>
			<linearGradient id="SVGID_1_" gradientUnits="userSpaceOnUse" x1="93" y1="48" x2="93" y2="78">
				<stop  offset="0" style="stop-color:#FFEF26"/>
				<stop  offset="0.0602" style="stop-color:#FDE926"/>
				<stop  offset="0.6984" style="stop-color:#EAA92B"/>
				<stop  offset="1" style="stop-color:#E3902D"/>
			</linearGradient>
			<path fill="url(#SVGID_1_)" d="M101,50c0-1.1-0.9-2-2-2H87c-1.1,0-2,0.9-2,2v26c0,1.1,0.9,2,2,2h12c1.1,0,2-0.9,2-2V50z"/>
		</g>
	</g>
</g>
<circle fill="#244C70" cx="327.569" cy="13.87" r="1.474"/>
<circle fill="#244C70" cx="340.913" cy="13.87" r="1.475"/>
<circle fill="#244C70" cx="334.378" cy="12.244" r="1.865"/>
<circle fill="#FFFFFF" cx="327.569" cy="13.089" r="1.474"/>
<circle fill="#FFFFFF" cx="340.913" cy="13.089" r="1.475"/>
<circle fill="#FFFFFF" cx="334.378" cy="11.463" r="1.865"/>
<path fill="#244C70" d="M263.249,21.71h-0.056c0,0,0.02-0.007,0.058-0.019c0.016-0.242,0.184-4.146,0.562-4.914
	c0.454-0.923,2.849-3.368,2.849-3.368s-0.208,2.779,0.204,3.614c0.165,0.334,0.655,0.88,1.204,1.433
	c0.664-0.304,1.232-0.605,1.573-0.869c1.208-0.933,3.851-4.968,4.149-5.427v-0.042c0,0,0.006,0.007,0.015,0.021
	c0.009-0.014,0.014-0.021,0.014-0.021v0.042c0.3,0.459,2.942,4.494,4.15,5.427c0.341,0.263,0.91,0.564,1.573,0.869
	c0.549-0.553,1.039-1.098,1.203-1.433c0.412-0.835,0.205-3.614,0.205-3.614s2.395,2.445,2.849,3.368
	c0.377,0.768,0.547,4.672,0.562,4.914c0.037,0.012,0.057,0.019,0.057,0.019h-0.055c0,0-3.748,1.342-10.457,1.342
	S263.249,21.71,263.249,21.71z"/>
<path fill="#FFFFFF" d="M263.249,21.074h-0.056c0,0,0.02-0.006,0.058-0.02c0.016-0.242,0.184-4.146,0.562-4.914
	c0.454-0.922,2.849-3.368,2.849-3.368s-0.208,2.778,0.204,3.613c0.165,0.334,0.655,0.88,1.204,1.433
	c0.664-0.304,1.232-0.604,1.573-0.869c1.208-0.932,3.851-4.967,4.149-5.426v-0.043c0,0,0.006,0.007,0.015,0.021
	c0.009-0.014,0.014-0.021,0.014-0.021v0.043c0.3,0.459,2.942,4.494,4.15,5.426c0.341,0.264,0.91,0.565,1.573,0.869
	c0.549-0.552,1.039-1.098,1.203-1.433c0.412-0.835,0.205-3.613,0.205-3.613s2.395,2.445,2.849,3.368
	c0.377,0.768,0.547,4.672,0.562,4.914c0.037,0.013,0.057,0.02,0.057,0.02h-0.055c0,0-3.748,1.342-10.457,1.342
	S263.249,21.074,263.249,21.074z"/>
<polygon fill="#244C70" points="403.184,35.132 410.787,32.212 415.915,38.54 423.961,39.813 425.238,47.862 431.567,52.989 
	428.646,60.592 431.567,68.197 425.238,73.323 423.961,81.373 415.915,82.646 410.787,88.976 403.184,86.054 395.578,88.976 
	390.452,82.646 382.406,81.373 381.129,73.323 374.804,68.197 377.719,60.592 374.804,52.989 381.129,47.862 382.406,39.813 
	390.452,38.54 395.578,32.212 "/>
<polygon fill="#FFFFFF" points="425.238,43.702 423.961,35.653 415.915,34.38 410.787,28.052 403.184,30.972 395.578,28.052 
	390.452,34.38 382.406,35.653 381.129,43.702 "/>
<ellipse transform="matrix(-0.9996 0.0272 -0.0272 -0.9996 843.3551 223.2813)" fill="#FFE000" stroke="#FFFFFF" stroke-width="0.9705" stroke-miterlimit="10" cx="420.16" cy="117.374" rx="4.697" ry="8.278"/>
<ellipse transform="matrix(-0.9996 0.0271 -0.0271 -0.9996 843.1515 218.5465)" fill="#FF7300" cx="420.095" cy="114.987" rx="3.342" ry="5.891"/>
<ellipse transform="matrix(-0.9996 0.0274 -0.0274 -0.9996 842.9764 213.3193)" fill="#FFE000" cx="420.025" cy="112.44" rx="1.896" ry="3.343"/>
<g>
	<g>
		<defs>
			<rect id="SVGID_145_" x="360.114" y="102.117" width="33.967" height="34.453"/>
		</defs>
		<clipPath id="SVGID_2_">
			<use xlink:href="#SVGID_145_"  overflow="visible"/>
		</clipPath>
		<path clip-path="url(#SVGID_2_)" fill="#343959" stroke="#FFFFFF" stroke-width="0.3235" stroke-miterlimit="10" d="
			M360.153,80.443c-12.059,0-21.835,9.777-21.835,21.836c0,12.06,9.776,21.836,21.835,21.836c12.061,0,21.837-9.776,21.837-21.836
			C381.99,90.22,372.214,80.443,360.153,80.443z M360.153,121.447c-10.586,0-19.166-8.583-19.166-19.168s8.58-19.167,19.166-19.167
			c10.587,0,19.168,8.581,19.168,19.167S370.74,121.447,360.153,121.447z"/>
	</g>
	
		<ellipse transform="matrix(-0.027 -0.9996 0.9996 -0.027 240.4389 479.1219)" fill="#FFE000" stroke="#FFFFFF" stroke-width="0.9705" stroke-miterlimit="10" cx="353.39" cy="122.549" rx="4.696" ry="8.278"/>
	
		<ellipse transform="matrix(-0.0273 -0.9996 0.9996 -0.0273 243.0584 481.4748)" fill="#FF7300" cx="355.777" cy="122.484" rx="3.342" ry="5.89"/>
	
		<ellipse transform="matrix(-0.0273 -0.9996 0.9996 -0.0273 245.7333 483.9455)" fill="#FFE000" cx="358.323" cy="122.415" rx="1.896" ry="3.343"/>
	
		<line fill="none" stroke="#FFFFFF" stroke-width="0.3235" stroke-miterlimit="10" x1="362.585" y1="121.234" x2="361.938" y2="124.106"/>
	
		<line fill="none" stroke="#FFFFFF" stroke-width="0.3235" stroke-miterlimit="10" x1="365.28" y1="120.804" x2="364.956" y2="123.636"/>
	
		<line fill="none" stroke="#FFFFFF" stroke-width="0.3235" stroke-miterlimit="10" x1="367.652" y1="119.941" x2="367.76" y2="122.786"/>
	
		<line fill="none" stroke="#FFFFFF" stroke-width="0.3235" stroke-miterlimit="10" x1="369.595" y1="118.97" x2="370.241" y2="121.558"/>
	
		<line fill="none" stroke="#FFFFFF" stroke-width="0.3235" stroke-miterlimit="10" x1="371.319" y1="117.785" x2="372.397" y2="120.265"/>
	
		<line fill="none" stroke="#FFFFFF" stroke-width="0.3235" stroke-miterlimit="10" x1="372.829" y1="116.598" x2="374.554" y2="118.647"/>
	
		<line fill="none" stroke="#FFFFFF" stroke-width="0.3235" stroke-miterlimit="10" x1="379.298" y1="103.765" x2="381.887" y2="103.765"/>
	
		<line fill="none" stroke="#FFFFFF" stroke-width="0.3235" stroke-miterlimit="10" x1="379.191" y1="105.706" x2="381.563" y2="106.03"/>
	
		<line fill="none" stroke="#FFFFFF" stroke-width="0.3235" stroke-miterlimit="10" x1="378.652" y1="107.431" x2="381.133" y2="108.186"/>
	
		<line fill="none" stroke="#FFFFFF" stroke-width="0.3235" stroke-miterlimit="10" x1="378.005" y1="109.373" x2="380.404" y2="110.493"/>
	
		<line fill="none" stroke="#FFFFFF" stroke-width="0.3235" stroke-miterlimit="10" x1="377.008" y1="111.463" x2="379.515" y2="112.595"/>
	
		<line fill="none" stroke="#FFFFFF" stroke-width="0.3235" stroke-miterlimit="10" x1="375.821" y1="113.228" x2="378.06" y2="114.658"/>
	
		<line fill="none" stroke="#FFFFFF" stroke-width="0.3235" stroke-miterlimit="10" x1="374.5" y1="114.82" x2="376.482" y2="116.801"/>
</g>
<g>
	<g>
		<defs>
			<rect id="SVGID_147_" x="400.858" y="105.549" width="33.967" height="34.452"/>
		</defs>
		<clipPath id="SVGID_3_">
			<use xlink:href="#SVGID_147_"  overflow="visible"/>
		</clipPath>
		<path clip-path="url(#SVGID_3_)" fill="#343959" stroke="#FFFFFF" stroke-width="0.3235" stroke-miterlimit="10" d="
			M385.694,83.874c-12.061,0-21.837,9.777-21.837,21.836s9.776,21.836,21.837,21.836c12.058,0,21.835-9.776,21.835-21.836
			S397.752,83.874,385.694,83.874z M385.694,124.877c-10.587,0-19.168-8.581-19.168-19.167c0-10.586,8.581-19.168,19.168-19.168
			c10.585,0,19.167,8.582,19.167,19.168C404.861,116.296,396.279,124.877,385.694,124.877z"/>
	</g>
	
		<line fill="none" stroke="#FFFFFF" stroke-width="0.3235" stroke-miterlimit="10" x1="404.677" y1="107.196" x2="407.265" y2="107.196"/>
	
		<line fill="none" stroke="#FFFFFF" stroke-width="0.3235" stroke-miterlimit="10" x1="404.568" y1="109.137" x2="406.94" y2="109.461"/>
	
		<line fill="none" stroke="#FFFFFF" stroke-width="0.3235" stroke-miterlimit="10" x1="404.03" y1="110.863" x2="406.51" y2="111.617"/>
	
		<line fill="none" stroke="#FFFFFF" stroke-width="0.3235" stroke-miterlimit="10" x1="403.384" y1="112.804" x2="405.781" y2="113.923"/>
	
		<line fill="none" stroke="#FFFFFF" stroke-width="0.3235" stroke-miterlimit="10" x1="402.385" y1="114.894" x2="404.892" y2="116.026"/>
	
		<line fill="none" stroke="#FFFFFF" stroke-width="0.3235" stroke-miterlimit="10" x1="401.199" y1="116.659" x2="403.437" y2="118.089"/>
	
		<ellipse transform="matrix(-0.6414 -0.7672 0.7672 -0.6414 555.7722 506.6624)" fill="#FFE000" stroke="#FFFFFF" stroke-width="0.8364" stroke-miterlimit="10" cx="396.286" cy="123.455" rx="6.519" ry="7.333"/>
	
		<ellipse transform="matrix(-0.6416 -0.7671 0.7671 -0.6416 559.5365 505.6552)" fill="#FF7300" cx="397.909" cy="122.098" rx="4.64" ry="5.217"/>
	
		<ellipse transform="matrix(-0.6415 -0.7671 0.7671 -0.6415 563.4723 504.6136)" fill="#FFE000" cx="399.64" cy="120.65" rx="2.633" ry="2.961"/>
</g>
<g>
	<path fill="#FFFFFF" d="M245.383,66.596c0,0,1.332,2.107,3.718,1.885c2.385-0.222,3.162-1.386,3.162-1.386s0.942,3.439-2.386,3.549
		C246.549,70.755,245.383,66.596,245.383,66.596z"/>
	<g>
		<g>
			<path fill="#FFFFFF" d="M222.364,47.786h-0.004H222.364z"/>
			<path fill="#FFFFFF" d="M237.758,44.858c0-1.673,3.065-3.493,4.653-4.027c0.483-0.163,0.759-0.671,0.634-1.166
				c-0.45-1.752-1.146-3.432-2.065-5c-0.266-0.455-0.847-0.615-1.31-0.36c-0.569,0.308-1.213,0.472-1.863,0.472
				c-2.151,0-3.902-1.747-3.902-3.898c0-0.653,0.166-1.297,0.477-1.866c0.25-0.463,0.09-1.041-0.363-1.308
				c-1.566-0.922-3.248-1.614-4.999-2.065c-0.493-0.126-1.003,0.15-1.167,0.633c-0.534,1.589-2.021,2.656-3.693,2.656
				c-1.677,0-3.161-1.071-3.696-2.656c-0.161-0.483-0.67-0.759-1.164-0.633c-1.753,0.451-3.433,1.144-5.002,2.065
				c-0.451,0.267-0.613,0.845-0.362,1.308c0.313,0.569,0.476,1.214,0.476,1.866c0,2.151-1.749,3.898-3.899,3.898
				c-0.653,0-1.3-0.164-1.866-0.472c-0.464-0.255-1.042-0.094-1.309,0.36c-0.922,1.567-1.616,3.248-2.065,5
				c-0.126,0.495,0.149,1.001,0.633,1.166c1.591,0.535,2.657,2.021,2.657,3.694l-1.225,9.862c0.267,0.453,0.845,0.613,1.309,0.362
				c0.569-0.31,1.215-0.475,1.866-0.475c2.15,0,3.899,1.75,3.899,3.9c0,0.652-0.163,1.296-0.476,1.866
				c-0.251,0.461-0.091,1.04,0.362,1.307c1.567,0.921,3.249,1.616,5.002,2.065c0.08,0.022,0.16,0.031,0.24,0.031
				c0.409,0,0.788-0.26,0.924-0.664c0.535-1.589,2.02-2.655,3.696-2.655c1.673,0,3.159,1.068,3.693,2.655
				c0.162,0.483,0.672,0.76,1.167,0.635c1.751-0.451,3.431-1.144,4.999-2.066c0.453-0.266,0.613-0.846,0.363-1.307
				c-0.311-0.571-0.477-1.217-0.477-1.869c0-2.149,1.751-3.899,3.902-3.899c0.652,0,1.294,0.165,1.863,0.475
				c0.463,0.251,1.044,0.091,1.31-0.364L237.758,44.858z M224.158,51.397c-3.224,0-6.424-1.83-5.849-6.869
				c0.366-3.205,2.625-5.849,5.849-5.849c3.226,0,5.848,2.624,5.848,5.849C230.006,49.983,227.384,51.397,224.158,51.397z"/>
		</g>
		<g>
			<path fill="#FFFFFF" d="M258.462,64.277c0-1.021,0.649-1.926,1.618-2.251c0.294-0.099,0.463-0.409,0.386-0.712
				c-0.272-1.066-0.697-2.09-1.258-3.046c-0.162-0.276-0.515-0.373-0.797-0.22c-0.347,0.188-0.74,0.289-1.138,0.289
				c-1.311,0-2.375-1.066-2.375-2.376c0-0.396,0.099-0.79,0.287-1.137c0.153-0.282,0.058-0.635-0.221-0.797
				c-0.954-0.562-1.979-0.983-3.047-1.257c-0.298-0.076-0.608,0.09-0.709,0.385c-0.325,0.97-1.232,1.619-2.252,1.619
				c-1.021,0-1.924-0.652-2.25-1.619c-0.1-0.295-0.409-0.461-0.711-0.385c-1.067,0.274-2.092,0.696-3.047,1.257
				c-0.275,0.163-0.373,0.516-0.22,0.797c0.188,0.347,0.288,0.741,0.288,1.137L258.462,64.277z"/>
		</g>
	</g>
	<g>
		<g>
			<g>
				<g>
					<path fill="#244C70" d="M222.276,53.458h-0.004H222.276z"/>
					<path fill="#244C70" d="M242.322,53.894c-1.589-0.535-2.655-2.022-2.655-3.695c0-1.674,1.068-3.161,2.655-3.695
						c0.484-0.162,0.76-0.67,0.635-1.166c-0.449-1.752-1.145-3.431-2.063-5c-0.268-0.454-0.85-0.614-1.311-0.362
						c-0.569,0.309-1.214,0.474-1.865,0.474c-2.15,0-3.9-1.75-3.9-3.899c0-0.654-1.915-0.528-1.605-1.097
						c-2.775,0.128,0.09-1.042-0.362-1.307c-1.566-0.922-1.167-2.384-2.919-2.837c-0.492-0.126-1.002,0.15-1.166,0.635
						c-0.534,1.588-2.021,2.655-3.694,2.655c-1.676,0-3.162-1.07-3.695-2.655c-0.163-0.483-0.672-0.762-1.165-0.635
						c-1.752,0.451-1.987,1.36-3.557,2.282c-0.451,0.266,1.14,2.014-1.108,1.553c0.309,0.567-0.224,0.754-0.224,1.406
						c0,2.148-1.748,3.899-3.899,3.899c-0.653,0-1.299-0.165-1.867-0.474c-0.461-0.252-1.042-0.092-1.307,0.362
						c-0.921,1.566-1.616,3.248-2.066,5c-0.125,0.495,0.151,1.002,0.635,1.166c1.59,0.534,2.656,2.021,2.656,3.695
						c0,1.672-1.068,3.16-2.656,3.695c-0.483,0.162-0.76,0.671-0.635,1.167c0.45,1.75,1.146,3.428,2.066,4.998
						c0.265,0.455,0.846,0.614,1.307,0.364c0.571-0.312,1.217-0.475,1.867-0.475c2.151,0,3.899,1.75,3.899,3.9
						c0,0.651-0.163,1.297-0.474,1.867c-0.251,0.461-0.092,1.04,0.361,1.306c1.567,0.921,3.249,1.614,5.001,2.066
						c0.081,0.021,0.161,0.032,0.241,0.032c0.408,0,0.787-0.262,0.924-0.667c0.533-1.588,2.02-2.653,3.695-2.653
						c1.674,0,3.16,1.069,3.694,2.653c0.16,0.486,0.67,0.762,1.166,0.635c1.752-0.451,3.431-1.145,4.999-2.066
						c0.453-0.267,0.613-0.845,0.362-1.306c-0.31-0.571-0.475-1.217-0.475-1.867c0-2.151,1.75-3.9,3.9-3.9
						c0.654,0,1.296,0.164,1.865,0.475c0.461,0.251,1.043,0.092,1.311-0.365c0.919-1.565,1.614-3.247,2.063-4.998
						C243.082,54.565,242.807,54.058,242.322,53.894z M224.07,56.05c-3.223,0-5.849-2.625-5.849-5.85
						c0-3.224,2.626-5.847,5.849-5.847c3.227,0,5.85,2.623,5.85,5.847C229.92,53.425,227.297,56.05,224.07,56.05z"/>
				</g>
				<g>
					<path fill="#244C70" d="M247.777,71.104L247.777,71.104L247.777,71.104z"/>
					<path fill="#244C70" d="M259.992,69.706c-0.968-0.327-1.619-1.232-1.619-2.252c0-1.02,0.651-1.926,1.619-2.251
						c0.295-0.1,0.464-0.408,0.388-0.711c-0.275-1.067-0.698-2.09-1.259-3.046c-0.162-0.277-0.516-0.375-0.799-0.221
						c-0.347,0.19-0.74,0.288-1.135,0.288c-1.313,0-2.377-1.063-2.377-2.375c0-0.397-1.019-0.406-0.83-0.752
						c-1.118,0.219,0.166-1.059-0.11-1.22c-0.955-0.563-0.972-0.945-2.038-1.221c-0.299-0.077-0.61,0.092-0.71,0.386
						c-0.326,0.968-1.232,1.62-2.251,1.62c-1.022,0-1.927-0.653-2.253-1.62c-0.098-0.294-0.407-0.463-0.711-0.386
						c-1.067,0.275-0.511,0.99-1.466,1.554c-0.275,0.162-0.265,0.384-0.111,0.666c0.189,0.346-1.399,0.576-1.399,0.973
						c0,1.311-1.067,2.375-2.377,2.375c-0.397,0-0.792-0.098-1.138-0.288c-0.279-0.153-0.636-0.056-0.796,0.221
						c-0.561,0.954-0.984,1.979-1.26,3.046c-0.075,0.303,0.093,0.61,0.387,0.711c0.969,0.325,1.619,1.231,1.619,2.251
						c0,1.02-0.65,1.925-1.619,2.252c-0.294,0.099-0.462,0.409-0.387,0.711c0.275,1.067,0.699,2.088,1.26,3.046
						c0.16,0.276,0.517,0.374,0.796,0.221c0.348-0.19,0.74-0.288,1.138-0.288c1.31,0,2.377,1.065,2.377,2.375
						c0,0.396-0.1,0.79-0.29,1.136c-0.152,0.281-0.055,0.635,0.221,0.799c0.955,0.56,1.979,0.983,3.046,1.256
						c0.05,0.013,0.1,0.02,0.148,0.02c0.249,0,0.479-0.16,0.563-0.405c0.326-0.968,1.23-1.619,2.253-1.619
						c1.019,0,1.925,0.651,2.251,1.619c0.098,0.296,0.408,0.463,0.71,0.385c1.066-0.273,2.092-0.696,3.046-1.256
						c0.276-0.164,0.374-0.516,0.222-0.799c-0.19-0.346-0.289-0.74-0.289-1.136c0-1.312,1.063-2.375,2.377-2.375
						c0.397,0,0.788,0.098,1.135,0.288c0.283,0.153,0.637,0.056,0.799-0.221c0.561-0.955,0.982-1.98,1.259-3.046
						C260.456,70.115,260.287,69.805,259.992,69.706z M248.871,71.019c-1.965,0-3.564-1.599-3.564-3.565
						c0-1.963,1.6-3.563,3.564-3.563c1.966,0,3.563,1.6,3.563,3.563C252.434,69.42,250.837,71.019,248.871,71.019z"/>
				</g>
			</g>
		</g>
		<g>
			<g>
				<g>
					<linearGradient id="SVGID_4_" gradientUnits="userSpaceOnUse" x1="222.2744" y1="49.7466" x2="222.2744" y2="49.7466">
						<stop  offset="0.225" style="stop-color:#C3C3C4"/>
						<stop  offset="0.4373" style="stop-color:#B7AEB4"/>
						<stop  offset="0.725" style="stop-color:#A995A2"/>
					</linearGradient>
					<path fill="url(#SVGID_4_)" d="M222.276,49.747h-0.004H222.276z"/>
					<linearGradient id="SVGID_5_" gradientUnits="userSpaceOnUse" x1="224.0693" y1="27.5684" x2="224.0693" y2="65.4058">
						<stop  offset="0.225" style="stop-color:#C3C3C4"/>
						<stop  offset="0.4373" style="stop-color:#B7AEB4"/>
						<stop  offset="0.725" style="stop-color:#A995A2"/>
					</linearGradient>
					<path fill="url(#SVGID_5_)" d="M242.322,50.182c-1.589-0.536-2.655-2.022-2.655-3.697c0-1.672,1.068-3.161,2.655-3.694
						c0.484-0.162,0.76-0.669,0.635-1.167c-0.449-1.75-1.145-3.431-2.063-4.999c-0.268-0.455-0.85-0.613-1.311-0.361
						c-0.569,0.309-1.214,0.472-1.865,0.472c-2.15,0-3.9-1.749-3.9-3.899c0-0.653,0.165-1.298,0.475-1.866
						c0.253-0.463,0.091-1.04-0.362-1.307c-1.566-0.921-3.247-1.615-4.999-2.066c-0.492-0.126-1.002,0.15-1.166,0.634
						c-0.534,1.588-2.021,2.655-3.694,2.655c-1.676,0-3.162-1.069-3.695-2.655c-0.163-0.484-0.672-0.76-1.165-0.634
						c-1.752,0.451-3.434,1.145-5.001,2.066c-0.452,0.267-0.612,0.844-0.361,1.307c0.311,0.568,0.474,1.215,0.474,1.866
						c0,2.15-1.748,3.899-3.899,3.899c-0.653,0-1.299-0.164-1.867-0.472c-0.461-0.255-1.042-0.094-1.307,0.361
						c-0.921,1.567-1.616,3.249-2.066,4.999c-0.125,0.497,0.151,1.001,0.635,1.167c1.59,0.534,2.656,2.022,2.656,3.694
						c0,1.675-1.068,3.161-2.656,3.697c-0.483,0.16-0.76,0.67-0.635,1.165c0.45,1.75,1.146,3.43,2.066,5
						c0.265,0.454,0.846,0.614,1.307,0.363c0.571-0.31,1.217-0.476,1.867-0.476c2.151,0,3.899,1.75,3.899,3.901
						c0,0.652-0.163,1.297-0.474,1.866c-0.251,0.461-0.092,1.041,0.361,1.308c1.567,0.921,3.249,1.615,5.001,2.065
						c0.081,0.022,0.161,0.032,0.241,0.032c0.408,0,0.787-0.261,0.924-0.665c0.533-1.59,2.02-2.656,3.695-2.656
						c1.674,0,3.16,1.069,3.694,2.656c0.16,0.483,0.67,0.761,1.166,0.635c1.752-0.451,3.431-1.145,4.999-2.066
						c0.453-0.267,0.613-0.846,0.362-1.308c-0.31-0.57-0.475-1.216-0.475-1.868c0-2.149,1.75-3.9,3.9-3.9
						c0.654,0,1.296,0.166,1.865,0.476c0.461,0.251,1.043,0.091,1.311-0.364c0.919-1.567,1.614-3.248,2.063-4.999
						C243.082,50.852,242.807,50.345,242.322,50.182z M224.07,52.338c-3.223,0-5.849-2.625-5.849-5.85
						c0-3.224,2.626-5.848,5.849-5.848c3.227,0,5.85,2.624,5.85,5.848C229.92,49.712,227.297,52.338,224.07,52.338z"/>
				</g>
				<g>
					<linearGradient id="SVGID_6_" gradientUnits="userSpaceOnUse" x1="247.7773" y1="67.3906" x2="247.7773" y2="67.3906">
						<stop  offset="0.225" style="stop-color:#C3C3C4"/>
						<stop  offset="0.4373" style="stop-color:#B7AEB4"/>
						<stop  offset="0.725" style="stop-color:#A995A2"/>
					</linearGradient>
					<path fill="url(#SVGID_6_)" d="M247.777,67.391L247.777,67.391L247.777,67.391z"/>
					<linearGradient id="SVGID_7_" gradientUnits="userSpaceOnUse" x1="248.8711" y1="53.8779" x2="248.8711" y2="76.9331">
						<stop  offset="0.225" style="stop-color:#C3C3C4"/>
						<stop  offset="0.4373" style="stop-color:#B7AEB4"/>
						<stop  offset="0.725" style="stop-color:#A995A2"/>
					</linearGradient>
					<path fill="url(#SVGID_7_)" d="M259.992,67.657c-0.968-0.327-1.619-1.232-1.619-2.252c0-1.02,0.651-1.925,1.619-2.251
						c0.295-0.1,0.464-0.41,0.388-0.712c-0.275-1.065-0.698-2.091-1.259-3.046c-0.162-0.275-0.516-0.373-0.799-0.22
						c-0.347,0.188-0.74,0.288-1.135,0.288c-1.313,0-2.377-1.065-2.377-2.375c0-0.396,0.099-0.789,0.289-1.137
						c0.152-0.283,0.055-0.634-0.222-0.797c-0.954-0.562-1.979-0.983-3.046-1.257c-0.299-0.078-0.61,0.089-0.71,0.385
						c-0.326,0.968-1.232,1.618-2.251,1.618c-1.022,0-1.927-0.652-2.253-1.618c-0.098-0.296-0.407-0.463-0.711-0.385
						c-1.067,0.274-2.091,0.696-3.046,1.257c-0.275,0.163-0.373,0.514-0.221,0.797c0.19,0.348,0.29,0.741,0.29,1.137
						c0,1.311-1.067,2.375-2.377,2.375c-0.397,0-0.792-0.1-1.138-0.288c-0.279-0.153-0.636-0.057-0.796,0.22
						c-0.561,0.955-0.984,1.981-1.26,3.046c-0.075,0.302,0.093,0.612,0.387,0.712c0.969,0.326,1.619,1.231,1.619,2.251
						c0,1.021-0.65,1.926-1.619,2.252c-0.294,0.097-0.462,0.409-0.387,0.71c0.275,1.065,0.699,2.09,1.26,3.044
						c0.16,0.278,0.517,0.376,0.796,0.224c0.348-0.19,0.74-0.291,1.138-0.291c1.31,0,2.377,1.066,2.377,2.376
						c0,0.398-0.1,0.792-0.29,1.138c-0.152,0.281-0.055,0.633,0.221,0.795c0.955,0.562,1.979,0.983,3.046,1.259
						c0.05,0.013,0.1,0.017,0.148,0.017c0.249,0,0.479-0.156,0.563-0.402c0.326-0.968,1.23-1.618,2.253-1.618
						c1.019,0,1.925,0.651,2.251,1.618c0.098,0.294,0.408,0.463,0.71,0.386c1.066-0.275,2.092-0.699,3.046-1.26
						c0.276-0.163,0.374-0.515,0.222-0.796c-0.19-0.347-0.289-0.741-0.289-1.138c0-1.31,1.063-2.376,2.377-2.376
						c0.397,0,0.788,0.101,1.135,0.291c0.283,0.152,0.637,0.054,0.799-0.224c0.561-0.954,0.982-1.979,1.259-3.044
						C260.456,68.066,260.287,67.756,259.992,67.657z M248.871,68.971c-1.965,0-3.564-1.599-3.564-3.565
						c0-1.965,1.6-3.563,3.564-3.563c1.966,0,3.563,1.599,3.563,3.563C252.434,67.372,250.837,68.971,248.871,68.971z"/>
				</g>
			</g>
		</g>
	</g>
</g>
<linearGradient id="SVGID_8_" gradientUnits="userSpaceOnUse" x1="403.1855" y1="29.7153" x2="403.1855" y2="86.4795">
	<stop  offset="0.45" style="stop-color:#FFEF26"/>
	<stop  offset="0.4831" style="stop-color:#FDE926"/>
	<stop  offset="0.8341" style="stop-color:#EAA92B"/>
	<stop  offset="1" style="stop-color:#E3902D"/>
</linearGradient>
<polygon fill="url(#SVGID_8_)" points="403.184,32.636 410.787,29.715 415.915,36.044 423.961,37.317 425.238,45.366 
	431.567,50.493 428.646,58.096 431.567,65.701 425.238,70.827 423.961,78.876 415.915,80.15 410.787,86.479 403.184,83.558 
	395.578,86.479 390.452,80.15 382.406,78.876 381.129,70.827 374.804,65.701 377.719,58.096 374.804,50.493 381.129,45.366 
	382.406,37.317 390.452,36.044 395.578,29.715 "/>
<g>
	<g>
		<path fill="#7C0606" d="M183.488,53.542l-5.731-5.732l5.731-5.743c1.193-1.192,1.193-3.208,0-4.399l-1.605-1.605
			c-1.191-1.192-3.207-1.192-4.398,0l-5.738,5.737l-5.695-5.695c-1.193-1.194-3.207-1.194-4.4,0l-1.604,1.603
			c-1.193,1.193-1.193,3.208,0,4.4l5.702,5.691l-5.702,5.701c-1.193,1.192-1.193,3.207,0,4.401l1.604,1.604
			c1.234,1.274,3.207,1.274,4.441,0l5.682-5.697l5.751,5.738c1.193,1.192,3.208,1.192,4.4,0l1.604-1.605
			C184.762,56.707,184.762,54.732,183.488,53.542z"/>
		<path fill="#D60000" d="M183.488,51.417l-5.731-5.731l5.731-5.744c1.193-1.192,1.193-3.208,0-4.399l-1.605-1.605
			c-1.191-1.193-3.207-1.193-4.398,0l-5.738,5.737l-5.695-5.694c-1.193-1.193-3.207-1.193-4.4,0l-1.604,1.603
			c-1.193,1.193-1.193,3.208,0,4.4l5.702,5.689l-5.702,5.702c-1.193,1.192-1.193,3.208,0,4.4l1.604,1.604
			c1.234,1.275,3.207,1.275,4.441,0l5.682-5.696l5.751,5.737c1.193,1.194,3.208,1.194,4.4,0l1.604-1.604
			C184.762,54.583,184.762,52.607,183.488,51.417z"/>
	</g>
	<ellipse fill="#FC8B8B" cx="179.795" cy="34.638" rx="1.143" ry="0.686"/>
	<ellipse fill="#FC8B8B" cx="163.197" cy="34.79" rx="0.99" ry="0.533"/>
</g>
<linearGradient id="SVGID_9_" gradientUnits="userSpaceOnUse" x1="273.8066" y1="22.6357" x2="273.8066" y2="22.6357">
	<stop  offset="0" style="stop-color:#FFEF26"/>
	<stop  offset="0.0602" style="stop-color:#FDE926"/>
	<stop  offset="0.6984" style="stop-color:#EAA92B"/>
	<stop  offset="1" style="stop-color:#E3902D"/>
</linearGradient>
<path fill="url(#SVGID_9_)" d="M273.792,22.636c0.008,0,0.021,0,0.028,0"/>
<linearGradient id="SVGID_10_" gradientUnits="userSpaceOnUse" x1="273.8066" y1="11.771" x2="273.8066" y2="22.7056">
	<stop  offset="0" style="stop-color:#FFEF26"/>
	<stop  offset="0.0602" style="stop-color:#FDE926"/>
	<stop  offset="0.6984" style="stop-color:#EAA92B"/>
	<stop  offset="1" style="stop-color:#E3902D"/>
</linearGradient>
<path fill="url(#SVGID_10_)" d="M263.249,21.363h-0.056c0,0,0.02-0.006,0.058-0.019c0.016-0.243,0.184-4.147,0.562-4.915
	c0.454-0.922,2.849-3.368,2.849-3.368s-0.208,2.778,0.204,3.614c0.165,0.334,0.655,0.88,1.204,1.433
	c0.664-0.304,1.232-0.605,1.573-0.869c1.208-0.932,3.851-4.967,4.149-5.426v-0.042c0,0,0.006,0.007,0.015,0.021
	c0.009-0.014,0.014-0.021,0.014-0.021v0.042c0.3,0.459,2.942,4.494,4.15,5.426c0.341,0.264,0.91,0.565,1.573,0.869
	c0.549-0.552,1.039-1.098,1.203-1.433c0.412-0.835,0.205-3.614,0.205-3.614s2.395,2.446,2.849,3.368
	c0.377,0.768,0.547,4.672,0.562,4.915c0.037,0.012,0.057,0.019,0.057,0.019h-0.055c0,0-3.748,1.342-10.457,1.342
	S263.249,21.363,263.249,21.363z"/>
<path fill="#244C70" d="M323.746,25.092h-0.056c0,0,0.02-0.006,0.057-0.019c0.016-0.243,0.185-4.146,0.563-4.915
	c0.454-0.922,2.847-3.368,2.847-3.368s-0.206,2.778,0.205,3.613c0.166,0.335,0.656,0.88,1.204,1.433
	c0.664-0.304,1.232-0.605,1.574-0.869c1.207-0.932,3.852-4.967,4.15-5.426v-0.043c0,0,0.004,0.008,0.014,0.021
	c0.008-0.014,0.014-0.021,0.014-0.021v0.043c0.299,0.459,2.941,4.494,4.149,5.426c0.342,0.264,0.911,0.565,1.574,0.869
	c0.548-0.553,1.04-1.098,1.203-1.433c0.413-0.835,0.205-3.613,0.205-3.613s2.394,2.445,2.847,3.368
	c0.379,0.768,0.547,4.672,0.564,4.915c0.036,0.012,0.056,0.019,0.056,0.019h-0.056c0,0-3.747,1.342-10.456,1.342
	C327.694,26.434,323.746,25.092,323.746,25.092z"/>
<path fill="#FFFFFF" d="M323.746,24.456h-0.056c0,0,0.02-0.006,0.057-0.019c0.016-0.243,0.185-4.146,0.563-4.915
	c0.454-0.922,2.847-3.368,2.847-3.368s-0.206,2.779,0.205,3.614c0.166,0.334,0.656,0.88,1.204,1.432
	c0.664-0.304,1.232-0.605,1.574-0.868c1.207-0.933,3.852-4.968,4.15-5.426v-0.043c0,0,0.004,0.008,0.014,0.021
	c0.008-0.014,0.014-0.021,0.014-0.021v0.043c0.299,0.458,2.941,4.494,4.149,5.426c0.342,0.263,0.911,0.564,1.574,0.868
	c0.548-0.552,1.04-1.098,1.203-1.432c0.413-0.835,0.205-3.614,0.205-3.614s2.394,2.446,2.847,3.368
	c0.379,0.768,0.547,4.672,0.564,4.915c0.036,0.012,0.056,0.019,0.056,0.019h-0.056c0,0-3.747,1.342-10.456,1.342
	C327.694,25.798,323.746,24.456,323.746,24.456z"/>
<linearGradient id="SVGID_11_" gradientUnits="userSpaceOnUse" x1="334.3027" y1="15.1523" x2="334.3027" y2="26.0874">
	<stop  offset="0" style="stop-color:#FFEF26"/>
	<stop  offset="0.0602" style="stop-color:#FDE926"/>
	<stop  offset="0.6984" style="stop-color:#EAA92B"/>
	<stop  offset="1" style="stop-color:#E3902D"/>
</linearGradient>
<path fill="url(#SVGID_11_)" d="M323.746,24.745h-0.056c0,0,0.02-0.007,0.057-0.019c0.016-0.242,0.185-4.146,0.563-4.914
	c0.454-0.922,2.847-3.368,2.847-3.368s-0.206,2.778,0.205,3.613c0.166,0.334,0.656,0.88,1.204,1.432
	c0.664-0.304,1.232-0.605,1.574-0.868c1.207-0.933,3.852-4.967,4.15-5.426v-0.043c0,0,0.004,0.007,0.014,0.021
	c0.008-0.014,0.014-0.021,0.014-0.021v0.043c0.299,0.459,2.941,4.494,4.149,5.426c0.342,0.263,0.911,0.564,1.574,0.868
	c0.548-0.552,1.04-1.098,1.203-1.432c0.413-0.835,0.205-3.613,0.205-3.613s2.394,2.445,2.847,3.368
	c0.379,0.768,0.547,4.672,0.564,4.914c0.036,0.012,0.056,0.019,0.056,0.019h-0.056c0,0-3.747,1.342-10.456,1.342
	C327.694,26.087,323.746,24.745,323.746,24.745z"/>
<circle fill="#244C70" cx="403.255" cy="58.216" r="21.967"/>
<circle fill="#FFFFFF" cx="403.255" cy="56.302" r="18.972"/>
<linearGradient id="SVGID_12_" gradientUnits="userSpaceOnUse" x1="403.2549" y1="38.5786" x2="403.2549" y2="76.5215">
	<stop  offset="0.45" style="stop-color:#FFEF26"/>
	<stop  offset="0.4831" style="stop-color:#FDE926"/>
	<stop  offset="0.8341" style="stop-color:#EAA92B"/>
	<stop  offset="1" style="stop-color:#E3902D"/>
</linearGradient>
<circle fill="url(#SVGID_12_)" cx="403.255" cy="57.55" r="18.972"/>
<g>
	<g>
		<path fill="#244C70" d="M24.648,41.739c0-0.172,0.141-0.313,0.313-0.313h19.823c0.172,0,0.313,0.141,0.313,0.313v19.16
			c0,0.172-0.141,0.313-0.313,0.313H24.961c-0.172,0-0.313-0.141-0.313-0.313V41.739z"/>
	</g>
	<g>
		<path fill="#244C70" d="M49.93,41.742c0-0.172,0.141-0.313,0.313-0.313h19.826c0.172,0,0.313,0.141,0.313,0.313v19.159
			c0,0.172-0.141,0.313-0.313,0.313H50.242c-0.172,0-0.313-0.141-0.313-0.313V41.742z"/>
	</g>
	<g>
		<path fill="#244C70" d="M24.648,66.955c0-0.172,0.141-0.313,0.313-0.313h19.823c0.172,0,0.313,0.141,0.313,0.313v19.16
			c0,0.172-0.141,0.313-0.313,0.313H24.961c-0.172,0-0.313-0.141-0.313-0.313V66.955z"/>
	</g>
	<g>
		<path fill="#244C70" d="M49.932,66.955c0-0.172,0.141-0.313,0.313-0.313h19.824c0.172,0,0.313,0.141,0.313,0.313v19.16
			c0,0.172-0.141,0.313-0.313,0.313H50.244c-0.172,0-0.313-0.141-0.313-0.313V66.955z"/>
	</g>
	<g>
		<path fill="#FFFFFF" d="M24.648,63.397c0-0.172,0.141-0.313,0.313-0.313h19.823c0.172,0,0.313,0.141,0.313,0.313v19.159
			c0,0.172-0.141,0.313-0.313,0.313H24.961c-0.172,0-0.313-0.141-0.313-0.313V63.397z"/>
	</g>
	<g>
		<path fill="#FFFFFF" d="M49.932,63.397c0-0.172,0.141-0.313,0.313-0.313h19.824c0.172,0,0.313,0.141,0.313,0.313v19.159
			c0,0.172-0.141,0.313-0.313,0.313H50.244c-0.172,0-0.313-0.141-0.313-0.313V63.397z"/>
	</g>
	<path fill="#244C70" d="M47.513,39.367l-0.001-2.83c0.032-0.16,1.33-3.488,1.907-5.622c1.337-4.925,3.89-7.842,7.588-8.673
		c0.848-0.19,1.671-0.289,2.444-0.289c3.67,0,6.259,2.153,7.103,5.905c0.997,4.45-1.721,8.081-6.93,9.253
		c-1.994,0.447-9.38,1.767-9.694,1.825L47.513,39.367z M59.451,25.269c-0.529,0-1.106,0.07-1.719,0.209
		c-2.438,0.547-4.109,2.61-5.113,6.307c-0.26,0.954-0.571,2.291-0.832,3.448c2.404-0.437,5.891-1.081,7.109-1.355
		c1.606-0.361,5.252-1.598,4.423-5.291C62.818,26.355,61.553,25.269,59.451,25.269z"/>
	<path fill="#244C70" d="M45.095,38.937c-0.314-0.058-7.701-1.377-9.692-1.825c-5.21-1.17-7.929-4.803-6.931-9.253
		c0.846-3.752,3.433-5.905,7.104-5.905c0.773,0,1.594,0.098,2.444,0.289c3.697,0.831,6.25,3.748,7.585,8.673
		c0.58,2.134,1.872,5.462,1.906,5.622l0.001,2.83L45.095,38.937z M31.708,28.586c-0.831,3.693,2.815,4.93,4.422,5.291
		c1.218,0.274,4.705,0.919,7.109,1.355c-0.259-1.157-0.572-2.493-0.831-3.448c-1.004-3.697-2.676-5.76-5.115-6.307
		c-0.611-0.139-1.188-0.209-1.715-0.209C33.475,25.269,32.208,26.355,31.708,28.586z"/>
	<path fill="#FFFFFF" d="M47.513,34.915l-0.001-2.83c0.032-0.16,1.33-3.488,1.907-5.622c1.337-4.925,3.89-7.843,7.588-8.673
		c0.848-0.19,1.671-0.289,2.444-0.289c3.67,0,6.259,2.153,7.103,5.905c0.997,4.45-1.721,8.081-6.93,9.253
		c-1.994,0.447-9.38,1.767-9.694,1.824L47.513,34.915z M59.451,20.816c-0.529,0-1.106,0.071-1.719,0.209
		c-2.438,0.547-4.109,2.61-5.113,6.307c-0.26,0.953-0.571,2.292-0.832,3.449c2.404-0.437,5.891-1.081,7.109-1.356
		c1.606-0.361,5.252-1.598,4.423-5.292C62.818,21.903,61.553,20.816,59.451,20.816z"/>
	<path fill="#FFFFFF" d="M45.095,34.484c-0.314-0.058-7.701-1.377-9.692-1.824c-5.21-1.17-7.929-4.803-6.931-9.253
		c0.846-3.752,3.433-5.905,7.104-5.905c0.773,0,1.594,0.098,2.444,0.289c3.697,0.83,6.25,3.748,7.585,8.673
		c0.58,2.134,1.872,5.462,1.906,5.622l0.001,2.83L45.095,34.484z M31.708,24.134c-0.831,3.694,2.815,4.931,4.422,5.292
		c1.218,0.274,4.705,0.919,7.109,1.356c-0.259-1.157-0.572-2.493-0.831-3.449c-1.004-3.697-2.676-5.76-5.115-6.307
		c-0.611-0.138-1.188-0.209-1.715-0.209C33.475,20.816,32.208,21.903,31.708,24.134z"/>
	<g>
		<linearGradient id="SVGID_13_" gradientUnits="userSpaceOnUse" x1="34.8711" y1="64.5137" x2="34.8711" y2="84.3008">
			<stop  offset="0" style="stop-color:#FFEF26"/>
			<stop  offset="0.0602" style="stop-color:#FDE926"/>
			<stop  offset="0.6984" style="stop-color:#EAA92B"/>
			<stop  offset="1" style="stop-color:#E3902D"/>
		</linearGradient>
		<path fill="url(#SVGID_13_)" d="M24.648,64.826c0-0.172,0.141-0.313,0.313-0.313h19.821c0.172,0,0.313,0.141,0.313,0.313v19.162
			c0,0.172-0.141,0.313-0.313,0.313H24.961c-0.172,0-0.313-0.141-0.313-0.313V64.826z"/>
	</g>
	<g>
		<linearGradient id="SVGID_14_" gradientUnits="userSpaceOnUse" x1="60.1523" y1="64.5137" x2="60.1523" y2="84.3008">
			<stop  offset="0" style="stop-color:#FFEF26"/>
			<stop  offset="0.0602" style="stop-color:#FDE926"/>
			<stop  offset="0.6984" style="stop-color:#EAA92B"/>
			<stop  offset="1" style="stop-color:#E3902D"/>
		</linearGradient>
		<path fill="url(#SVGID_14_)" d="M49.929,64.826c0-0.172,0.141-0.313,0.313-0.313h19.823c0.172,0,0.313,0.141,0.313,0.313v19.162
			c0,0.172-0.141,0.313-0.313,0.313H50.241c-0.172,0-0.313-0.141-0.313-0.313V64.826z"/>
	</g>
	<linearGradient id="SVGID_16_" gradientUnits="userSpaceOnUse" x1="57.1328" y1="18.9683" x2="57.1328" y2="36.3818">
		<stop  offset="0" style="stop-color:#FFEF26"/>
		<stop  offset="0.0602" style="stop-color:#FDE926"/>
		<stop  offset="0.6984" style="stop-color:#EAA92B"/>
		<stop  offset="1" style="stop-color:#E3902D"/>
	</linearGradient>
	<path fill="url(#SVGID_16_)" d="M47.512,36.382l0.504-2.403c0.034-0.159,0.825-3.916,1.401-6.05
		c1.336-4.924,3.89-7.843,7.585-8.672c0.852-0.191,1.674-0.289,2.447-0.289c3.671,0,6.26,2.154,7.102,5.905
		c0.999,4.452-1.721,8.082-6.929,9.251c-1.992,0.449-9.378,1.77-9.693,1.825L47.512,36.382z M59.449,22.284
		c-0.529,0-1.108,0.069-1.717,0.206c-2.438,0.548-4.112,2.611-5.116,6.309c-0.258,0.954-0.57,2.293-0.831,3.448
		c2.404-0.437,5.892-1.079,7.109-1.355c1.607-0.36,5.252-1.597,4.422-5.29C62.816,23.368,61.551,22.284,59.449,22.284z"/>
	<linearGradient id="SVGID_18_" gradientUnits="userSpaceOnUse" x1="37.8887" y1="18.9683" x2="37.8887" y2="36.3818">
		<stop  offset="0" style="stop-color:#FFEF26"/>
		<stop  offset="0.0602" style="stop-color:#FDE926"/>
		<stop  offset="0.6984" style="stop-color:#EAA92B"/>
		<stop  offset="1" style="stop-color:#E3902D"/>
	</linearGradient>
	<path fill="url(#SVGID_18_)" d="M45.092,35.95c-0.312-0.056-7.699-1.376-9.691-1.825c-5.21-1.169-7.93-4.799-6.931-9.251
		c0.843-3.751,3.434-5.905,7.104-5.905c0.773,0,1.597,0.098,2.445,0.289c3.695,0.829,6.25,3.748,7.585,8.672
		c0.58,2.134,1.369,5.891,1.401,6.05l0.507,2.403L45.092,35.95z M31.706,25.601c-0.829,3.693,2.817,4.929,4.422,5.29
		c1.218,0.274,4.704,0.919,7.11,1.355c-0.26-1.155-0.572-2.493-0.832-3.448c-1.004-3.697-2.676-5.761-5.113-6.309
		c-0.613-0.137-1.19-0.206-1.719-0.206C33.472,22.284,32.206,23.368,31.706,25.601z"/>
	<g>
		<path fill="#FFFFFF" d="M24.648,38.18c0-0.172,0.141-0.313,0.313-0.313h19.823c0.172,0,0.313,0.141,0.313,0.313v19.16
			c0,0.172-0.141,0.313-0.313,0.313H24.961c-0.172,0-0.313-0.141-0.313-0.313V38.18z"/>
	</g>
	<g>
		<path fill="#FFFFFF" d="M49.93,38.183c0-0.172,0.141-0.313,0.313-0.313h19.826c0.172,0,0.313,0.141,0.313,0.313v19.16
			c0,0.172-0.141,0.313-0.313,0.313H50.242c-0.172,0-0.313-0.141-0.313-0.313V38.183z"/>
	</g>
	<g>
		<linearGradient id="SVGID_20_" gradientUnits="userSpaceOnUse" x1="34.8711" y1="39.3003" x2="34.8711" y2="59.0825">
			<stop  offset="0" style="stop-color:#FFEF26"/>
			<stop  offset="0.0602" style="stop-color:#FDE926"/>
			<stop  offset="0.6984" style="stop-color:#EAA92B"/>
			<stop  offset="1" style="stop-color:#E3902D"/>
		</linearGradient>
		<path fill="url(#SVGID_20_)" d="M24.648,39.613c0-0.172,0.141-0.313,0.313-0.313h19.821c0.172,0,0.313,0.141,0.313,0.313V58.77
			c0,0.172-0.141,0.313-0.313,0.313H24.961c-0.172,0-0.313-0.141-0.313-0.313V39.613z"/>
	</g>
	<g>
		<linearGradient id="SVGID_22_" gradientUnits="userSpaceOnUse" x1="60.1523" y1="39.3003" x2="60.1523" y2="59.0864">
			<stop  offset="0" style="stop-color:#FFEF26"/>
			<stop  offset="0.0602" style="stop-color:#FDE926"/>
			<stop  offset="0.6984" style="stop-color:#EAA92B"/>
			<stop  offset="1" style="stop-color:#E3902D"/>
		</linearGradient>
		<path fill="url(#SVGID_22_)" d="M49.929,39.613c0-0.172,0.141-0.313,0.313-0.313h19.823c0.172,0,0.313,0.141,0.313,0.313v19.161
			c0,0.172-0.141,0.313-0.313,0.313H50.241c-0.172,0-0.313-0.141-0.313-0.313V39.613z"/>
	</g>
</g>
<linearGradient id="SVGID_24_" gradientUnits="userSpaceOnUse" x1="327.5684" y1="11.9038" x2="327.5684" y2="14.8535">
	<stop  offset="0" style="stop-color:#FFEF26"/>
	<stop  offset="0.0602" style="stop-color:#FDE926"/>
	<stop  offset="0.6984" style="stop-color:#EAA92B"/>
	<stop  offset="1" style="stop-color:#E3902D"/>
</linearGradient>
<circle fill="url(#SVGID_24_)" cx="327.569" cy="13.378" r="1.474"/>
<linearGradient id="SVGID_26_" gradientUnits="userSpaceOnUse" x1="340.9131" y1="11.9038" x2="340.9131" y2="14.8535">
	<stop  offset="0" style="stop-color:#FFEF26"/>
	<stop  offset="0.0602" style="stop-color:#FDE926"/>
	<stop  offset="0.6984" style="stop-color:#EAA92B"/>
	<stop  offset="1" style="stop-color:#E3902D"/>
</linearGradient>
<circle fill="url(#SVGID_26_)" cx="340.913" cy="13.378" r="1.475"/>
<linearGradient id="SVGID_28_" gradientUnits="userSpaceOnUse" x1="334.3779" y1="9.8872" x2="334.3779" y2="13.6172">
	<stop  offset="0" style="stop-color:#FFEF26"/>
	<stop  offset="0.0602" style="stop-color:#FDE926"/>
	<stop  offset="0.6984" style="stop-color:#EAA92B"/>
	<stop  offset="1" style="stop-color:#E3902D"/>
</linearGradient>
<circle fill="url(#SVGID_28_)" cx="334.378" cy="11.752" r="1.865"/>
<circle fill="#244C70" cx="293.505" cy="12.841" r="1.475"/>
<circle fill="#244C70" cx="306.848" cy="12.841" r="1.475"/>
<circle fill="#244C70" cx="300.314" cy="11.215" r="1.865"/>
<circle fill="#FFFFFF" cx="293.505" cy="12.061" r="1.475"/>
<circle fill="#FFFFFF" cx="306.848" cy="12.061" r="1.475"/>
<circle fill="#FFFFFF" cx="300.314" cy="10.435" r="1.865"/>
<path fill="#244C70" d="M289.683,24.063h-0.056c0,0,0.02-0.006,0.056-0.019c0.016-0.242,0.185-4.146,0.563-4.915
	c0.453-0.922,2.848-3.368,2.848-3.368s-0.208,2.778,0.204,3.614c0.164,0.334,0.654,0.88,1.204,1.432
	c0.663-0.304,1.232-0.604,1.573-0.868c1.207-0.933,3.852-4.967,4.15-5.426v-0.043c0,0,0.004,0.007,0.014,0.021
	c0.009-0.015,0.014-0.021,0.014-0.021v0.043c0.299,0.459,2.942,4.494,4.15,5.426c0.342,0.264,0.91,0.564,1.574,0.868
	c0.548-0.552,1.038-1.098,1.203-1.432c0.411-0.835,0.205-3.614,0.205-3.614s2.393,2.445,2.847,3.368
	c0.378,0.768,0.548,4.672,0.563,4.915c0.038,0.013,0.058,0.019,0.058,0.019h-0.056c0,0-3.747,1.343-10.456,1.343
	S289.683,24.063,289.683,24.063z"/>
<path fill="#FFFFFF" d="M289.683,23.427h-0.056c0,0,0.02-0.007,0.056-0.019c0.016-0.243,0.185-4.147,0.563-4.915
	c0.453-0.922,2.848-3.367,2.848-3.367s-0.208,2.778,0.204,3.614c0.164,0.334,0.654,0.88,1.204,1.432
	c0.663-0.304,1.232-0.605,1.573-0.869c1.207-0.932,3.852-4.967,4.15-5.426v-0.042c0,0,0.004,0.007,0.014,0.021
	c0.009-0.014,0.014-0.021,0.014-0.021v0.042c0.299,0.459,2.942,4.494,4.15,5.426c0.342,0.264,0.91,0.565,1.574,0.869
	c0.548-0.552,1.038-1.098,1.203-1.432c0.411-0.836,0.205-3.614,0.205-3.614s2.393,2.445,2.847,3.367
	c0.378,0.768,0.548,4.672,0.563,4.915c0.038,0.012,0.058,0.019,0.058,0.019h-0.056c0,0-3.747,1.342-10.456,1.342
	S289.683,23.427,289.683,23.427z"/>
<linearGradient id="SVGID_30_" gradientUnits="userSpaceOnUse" x1="300.2393" y1="24.9888" x2="300.2393" y2="24.9888">
	<stop  offset="0" style="stop-color:#FFEF26"/>
	<stop  offset="0.0602" style="stop-color:#FDE926"/>
	<stop  offset="0.6984" style="stop-color:#EAA92B"/>
	<stop  offset="1" style="stop-color:#E3902D"/>
</linearGradient>
<path fill="url(#SVGID_30_)" d="M300.226,24.989c0.006,0,0.021,0,0.027,0"/>
<linearGradient id="SVGID_31_" gradientUnits="userSpaceOnUse" x1="300.2402" y1="14.123" x2="300.2402" y2="25.0581">
	<stop  offset="0" style="stop-color:#FFEF26"/>
	<stop  offset="0.0602" style="stop-color:#FDE926"/>
	<stop  offset="0.6984" style="stop-color:#EAA92B"/>
	<stop  offset="1" style="stop-color:#E3902D"/>
</linearGradient>
<path fill="url(#SVGID_31_)" d="M289.683,23.716h-0.056c0,0,0.02-0.007,0.056-0.019c0.016-0.242,0.185-4.146,0.563-4.915
	c0.453-0.922,2.848-3.368,2.848-3.368s-0.208,2.778,0.204,3.614c0.164,0.334,0.654,0.88,1.204,1.433
	c0.663-0.304,1.232-0.605,1.573-0.869c1.207-0.932,3.852-4.967,4.15-5.426v-0.043c0,0,0.004,0.008,0.014,0.021
	c0.009-0.014,0.014-0.021,0.014-0.021v0.043c0.299,0.459,2.942,4.494,4.15,5.426c0.342,0.264,0.91,0.565,1.574,0.869
	c0.548-0.553,1.038-1.099,1.203-1.433c0.411-0.835,0.205-3.614,0.205-3.614s2.393,2.445,2.847,3.368
	c0.378,0.768,0.548,4.672,0.563,4.915c0.038,0.012,0.058,0.019,0.058,0.019h-0.056c0,0-3.747,1.342-10.456,1.342
	S289.683,23.716,289.683,23.716z"/>
<linearGradient id="SVGID_32_" gradientUnits="userSpaceOnUse" x1="293.5049" y1="10.875" x2="293.5049" y2="13.8242">
	<stop  offset="0" style="stop-color:#FFEF26"/>
	<stop  offset="0.0602" style="stop-color:#FDE926"/>
	<stop  offset="0.6984" style="stop-color:#EAA92B"/>
	<stop  offset="1" style="stop-color:#E3902D"/>
</linearGradient>
<circle fill="url(#SVGID_32_)" cx="293.505" cy="12.35" r="1.475"/>
<linearGradient id="SVGID_34_" gradientUnits="userSpaceOnUse" x1="306.8477" y1="10.875" x2="306.8477" y2="13.8242">
	<stop  offset="0" style="stop-color:#FFEF26"/>
	<stop  offset="0.0602" style="stop-color:#FDE926"/>
	<stop  offset="0.6984" style="stop-color:#EAA92B"/>
	<stop  offset="1" style="stop-color:#E3902D"/>
</linearGradient>
<circle fill="url(#SVGID_34_)" cx="306.848" cy="12.35" r="1.475"/>
<linearGradient id="SVGID_35_" gradientUnits="userSpaceOnUse" x1="300.3145" y1="8.8584" x2="300.3145" y2="12.5879">
	<stop  offset="0" style="stop-color:#FFEF26"/>
	<stop  offset="0.0602" style="stop-color:#FDE926"/>
	<stop  offset="0.6984" style="stop-color:#EAA92B"/>
	<stop  offset="1" style="stop-color:#E3902D"/>
</linearGradient>
<circle fill="url(#SVGID_35_)" cx="300.314" cy="10.723" r="1.865"/>
<ellipse fill="#BF0A0A" cx="300.266" cy="20.726" rx="2.117" ry="3.079"/>
<ellipse fill="#FF0000" cx="300.247" cy="20.745" rx="1.64" ry="2.386"/>
<ellipse fill="#FFFFFF" cx="300.263" cy="18.982" rx="0.549" ry="0.404"/>
<ellipse transform="matrix(0.9813 -0.1923 0.1923 0.9813 1.8165 59.9978)" fill="#173B84" cx="310.065" cy="20.639" rx="1.157" ry="2.313"/>
<ellipse transform="matrix(0.9813 -0.1922 0.1922 0.9813 1.8151 60.0182)" fill="#7B7BFF" cx="310.201" cy="20.655" rx="0.897" ry="1.793"/>
<ellipse transform="matrix(0.9128 0.4084 -0.4084 0.9128 34.9175 -124.9673)" fill="#FFFFFF" cx="310.109" cy="19.287" rx="0.3" ry="0.199"/>
<ellipse transform="matrix(-0.9813 -0.1925 0.1925 -0.9813 571.3448 96.6914)" fill="#447028" cx="290.369" cy="20.596" rx="1.157" ry="2.313"/>
<ellipse transform="matrix(-0.9813 -0.1924 0.1924 -0.9813 571.0757 96.6794)" fill="#4CD848" cx="290.232" cy="20.612" rx="0.897" ry="1.793"/>
<ellipse transform="matrix(-0.912 0.4103 -0.4103 -0.912 562.9806 -82.3264)" fill="#FFFFFF" cx="290.324" cy="19.243" rx="0.299" ry="0.199"/>
<circle fill="#A0D1F1" cx="285.007" cy="69.667" r="9.007"/>
<circle fill="#D60000" cx="285.007" cy="69.667" r="6.701"/>
<g>
	<g>
		<g>
			<path fill="#244C70" d="M137,62c0-1.1-0.9-2-2-2h-12c-1.1,0-2,0.9-2,2v16c0,1.1,0.9,2,2,2h12c1.1,0,2-0.9,2-2V62z"/>
		</g>
		<g>
			<path fill="#FFFFFF" d="M137,58c0-1.1-0.9-2-2-2h-12c-1.1,0-2,0.9-2,2v17c0,1.1,0.9,2,2,2h12c1.1,0,2-0.9,2-2V58z"/>
		</g>
		<g>
			<linearGradient id="SVGID_37_" gradientUnits="userSpaceOnUse" x1="129" y1="57" x2="129" y2="78">
				<stop  offset="0" style="stop-color:#FFEF26"/>
				<stop  offset="0.0602" style="stop-color:#FDE926"/>
				<stop  offset="0.6984" style="stop-color:#EAA92B"/>
				<stop  offset="1" style="stop-color:#E3902D"/>
			</linearGradient>
			<path fill="url(#SVGID_37_)" d="M137,59c0-1.1-0.9-2-2-2h-12c-1.1,0-2,0.9-2,2v17c0,1.1,0.9,2,2,2h12c1.1,0,2-0.9,2-2V59z"/>
		</g>
	</g>
</g>
<g>
	<g>
		<g>
			<path fill="#244C70" d="M119,62c0-1.1-0.9-2-2-2h-12c-1.1,0-2,0.9-2,2v16c0,1.1,0.9,2,2,2h12c1.1,0,2-0.9,2-2V62z"/>
		</g>
		<g>
			<path fill="#FFFFFF" d="M119,36c0-1.1-0.9-2-2-2h-12c-1.1,0-2,0.9-2,2v17c0,1.1,0.9,2,2,2h12c1.1,0,2-0.9,2-2V36z"/>
		</g>
		<g>
			<linearGradient id="SVGID_39_" gradientUnits="userSpaceOnUse" x1="111" y1="35" x2="111" y2="78">
				<stop  offset="0" style="stop-color:#FFEF26"/>
				<stop  offset="0.0602" style="stop-color:#FDE926"/>
				<stop  offset="0.6984" style="stop-color:#EAA92B"/>
				<stop  offset="1" style="stop-color:#E3902D"/>
			</linearGradient>
			<path fill="url(#SVGID_39_)" d="M119,37c0-1.1-0.9-2-2-2h-12c-1.1,0-2,0.9-2,2v39c0,1.1,0.9,2,2,2h12c1.1,0,2-0.9,2-2V37z"/>
		</g>
	</g>
</g>
<path fill="#244C70" d="M403.186,46.62c2.381,0,4.332,1.921,4.332,4.331c0,2.38-1.923,4.33-4.332,4.33c-2.38,0-4.33-1.921-4.33-4.33
	C398.855,48.569,400.777,46.62,403.186,46.62z"/>
<path fill="#244C70" d="M409.438,66.093h-12.504c-0.659,0-1.147-0.601-1.062-1.233c0.631-4.187,2.467-8.317,7.313-8.317
	s6.683,4.13,7.314,8.317C410.585,65.52,410.098,66.093,409.438,66.093z"/>
<g>
	<linearGradient id="SVGID_40_" gradientUnits="userSpaceOnUse" x1="227.8975" y1="154.9609" x2="227.8975" y2="95.5327">
		<stop  offset="0" style="stop-color:#FFEF26"/>
		<stop  offset="0.0602" style="stop-color:#FDE926"/>
		<stop  offset="0.6984" style="stop-color:#EAA92B"/>
		<stop  offset="1" style="stop-color:#E3902D"/>
	</linearGradient>
	<polygon fill="url(#SVGID_40_)" points="203.409,103.297 215.653,103.794 227.962,95.533 240.539,103.794 252.386,103.098 
		252.386,141.82 227.962,154.961 203.409,142.12 	"/>
	<polygon fill="none" stroke="#FFFFFF" stroke-width="5" stroke-miterlimit="10" points="203.411,101.81 215.655,102.308 
		227.963,94.045 240.541,102.308 252.385,101.611 252.385,140.334 227.963,153.475 203.411,140.633 	"/>
	<polygon fill="none" stroke="#244C70" stroke-width="5" stroke-miterlimit="10" points="203.411,105.587 215.655,106.084 
		227.963,97.823 240.541,106.084 252.385,105.388 252.385,144.112 227.963,157.252 203.411,144.41 	"/>
	<linearGradient id="SVGID_42_" gradientUnits="userSpaceOnUse" x1="227.8984" y1="92.3037" x2="227.8984" y2="157.5635">
		<stop  offset="0" style="stop-color:#FFEF26"/>
		<stop  offset="0.0602" style="stop-color:#FDE926"/>
		<stop  offset="0.6984" style="stop-color:#EAA92B"/>
		<stop  offset="1" style="stop-color:#E3902D"/>
	</linearGradient>
	<polygon fill="none" stroke="url(#SVGID_42_)" stroke-width="5" stroke-miterlimit="10" points="203.411,103.069 215.655,103.568 
		227.963,95.305 240.541,103.568 252.385,102.87 252.385,141.594 227.963,154.733 203.411,141.893 	"/>
	<g>
		
			<linearGradient id="SVGID_44_" gradientUnits="userSpaceOnUse" x1="-8690.4463" y1="-6213.2993" x2="-8691.1973" y2="-6213.2969" gradientTransform="matrix(-0.6089 -0.7933 -0.7933 0.6089 -10004.6836 -2983.0349)">
			<stop  offset="0" style="stop-color:#FF2A26"/>
			<stop  offset="0.0066" style="stop-color:#FD2A27"/>
			<stop  offset="0.1673" style="stop-color:#C92C3B"/>
			<stop  offset="0.3253" style="stop-color:#9E2E4C"/>
			<stop  offset="0.4774" style="stop-color:#7D2F59"/>
			<stop  offset="0.6221" style="stop-color:#653062"/>
			<stop  offset="0.7564" style="stop-color:#573168"/>
			<stop  offset="0.87" style="stop-color:#52316A"/>
		</linearGradient>
		<polygon fill="url(#SVGID_44_)" stroke="#244C70" stroke-width="0.184" stroke-miterlimit="10" points="218.352,125.979 
			213.539,129.673 213.983,130.254 218.696,126.638 		"/>
		
			<linearGradient id="SVGID_46_" gradientUnits="userSpaceOnUse" x1="-8685.5488" y1="-6219.563" x2="-8685.5488" y2="-6213.7456" gradientTransform="matrix(-0.6089 -0.7933 -0.7933 0.6089 -10004.6836 -2983.0349)">
			<stop  offset="0.21" style="stop-color:#FF2A26"/>
			<stop  offset="0.2143" style="stop-color:#FD2A27"/>
			<stop  offset="0.3186" style="stop-color:#C92C3B"/>
			<stop  offset="0.4212" style="stop-color:#9E2E4C"/>
			<stop  offset="0.52" style="stop-color:#7D2F59"/>
			<stop  offset="0.614" style="stop-color:#653062"/>
			<stop  offset="0.7012" style="stop-color:#573168"/>
			<stop  offset="0.775" style="stop-color:#52316A"/>
		</linearGradient>
		<path fill="url(#SVGID_46_)" stroke="#244C70" stroke-width="0.2761" stroke-miterlimit="10" d="M217.966,120.171
			c0,0-0.874-0.308-2.356,0.739c-1.507,1.065-2.561,2.409-2.561,2.409s1.016-0.635,1.795-0.972c0.83-0.359,1.291,0.143,1.291,0.143
			L217.966,120.171z"/>
		
			<linearGradient id="SVGID_48_" gradientUnits="userSpaceOnUse" x1="-8692.7393" y1="-6219.6807" x2="-8692.7393" y2="-6213.8975" gradientTransform="matrix(-0.6089 -0.7933 -0.7933 0.6089 -10004.6836 -2983.0349)">
			<stop  offset="0.21" style="stop-color:#FF2A26"/>
			<stop  offset="0.2143" style="stop-color:#FD2A27"/>
			<stop  offset="0.3186" style="stop-color:#C92C3B"/>
			<stop  offset="0.4212" style="stop-color:#9E2E4C"/>
			<stop  offset="0.52" style="stop-color:#7D2F59"/>
			<stop  offset="0.614" style="stop-color:#653062"/>
			<stop  offset="0.7012" style="stop-color:#573168"/>
			<stop  offset="0.775" style="stop-color:#52316A"/>
		</linearGradient>
		<path fill="url(#SVGID_48_)" stroke="#244C70" stroke-width="0.2761" stroke-miterlimit="10" d="M222.267,125.581
			c0,0,0.215,0.99-1.12,2.227c-1.354,1.256-2.951,1.968-2.951,1.968s0.821-0.873,1.295-1.583c0.499-0.756,0.018-1.373,0.018-1.373
			L222.267,125.581z"/>
		
			<linearGradient id="SVGID_50_" gradientUnits="userSpaceOnUse" x1="-8689.2539" y1="-6238.4883" x2="-8689.2539" y2="-6215.8623" gradientTransform="matrix(-0.6089 -0.7933 -0.7933 0.6089 -10004.6836 -2983.0349)">
			<stop  offset="0.21" style="stop-color:#FF2A26"/>
			<stop  offset="0.766" style="stop-color:#F22B2B"/>
			<stop  offset="0.8028" style="stop-color:#C92D3B"/>
			<stop  offset="0.8468" style="stop-color:#9E2E4C"/>
			<stop  offset="0.8895" style="stop-color:#7D2F59"/>
			<stop  offset="0.9303" style="stop-color:#653062"/>
			<stop  offset="0.968" style="stop-color:#573168"/>
			<stop  offset="1" style="stop-color:#52316A"/>
		</linearGradient>
		<path fill="url(#SVGID_50_)" stroke="#244C70" stroke-width="0.2761" stroke-miterlimit="10" d="M230.042,119.705l0.563,0.046
			l4.592-8.216l-9.123,2.311l-0.124,0.526l0.276,0.516c0,0-4.901,2.391-5.739,3.035c-1.684,1.292-4.412,4.759-4.412,4.759
			s0.203,1.365,1.164,2.619c0.961,1.25,2.195,1.76,2.195,1.76s4.979-2.346,5.788-2.968c1.746-1.34,4.364-4.827,4.364-4.827
			L230.042,119.705z"/>
		
			<linearGradient id="SVGID_52_" gradientUnits="userSpaceOnUse" x1="-8689.209" y1="-6230.8472" x2="-8689.209" y2="-6229.4185" gradientTransform="matrix(-0.6089 -0.7933 -0.7933 0.6089 -10004.6836 -2983.0349)">
			<stop  offset="0" style="stop-color:#A72A26"/>
			<stop  offset="0.0619" style="stop-color:#9E2B2D"/>
			<stop  offset="0.3226" style="stop-color:#7D2D48"/>
			<stop  offset="0.5722" style="stop-color:#652F5B"/>
			<stop  offset="0.8039" style="stop-color:#573166"/>
			<stop  offset="1" style="stop-color:#52316A"/>
		</linearGradient>
		<path fill="url(#SVGID_52_)" d="M230.479,119.587c0,0-0.386-2.15-1.357-3.415c-0.967-1.261-2.945-2.262-2.945-2.262l-0.148,0.578
			c0,0,1.713,0.855,2.625,2.045c0.914,1.191,1.282,3.035,1.282,3.035L230.479,119.587z"/>
		<path fill="#441B17" d="M229.933,119.558l-0.49-0.482c0,0,0.063-1.01-1.039-2.444c-1.1-1.436-2.124-1.674-2.124-1.674
			l-0.259-0.478c0,0,1.609,0.719,2.578,1.981C229.567,117.725,229.933,119.558,229.933,119.558z"/>
		<path fill="#FF6C6C" d="M228.089,114.031c0.043,0.186,1.267,0.054,2.732-0.294c1.468-0.348,2.62-0.783,2.576-0.97
			c-0.047-0.187-1.271-0.056-2.736,0.293C229.196,113.409,228.043,113.844,228.089,114.031z"/>
		
			<ellipse transform="matrix(-0.8811 0.4729 -0.4729 -0.8811 476.5908 113.7696)" fill="#FF6C6C" cx="223.996" cy="116.786" rx="2.729" ry="0.348"/>
		
			<ellipse transform="matrix(-0.9158 0.4015 -0.4015 -0.9158 463.6089 144.4116)" fill="#FF6C6C" cx="216.671" cy="120.788" rx="0.615" ry="0.124"/>
	</g>
	<g>
		
			<linearGradient id="SVGID_54_" gradientUnits="userSpaceOnUse" x1="-8698.8564" y1="-6209.7681" x2="-8699.9307" y2="-6209.7646" gradientTransform="matrix(-0.6089 -0.7933 -0.7933 0.6089 -10004.6836 -2983.0349)">
			<stop  offset="0" style="stop-color:#FF2A26"/>
			<stop  offset="0.0066" style="stop-color:#FD2A27"/>
			<stop  offset="0.1673" style="stop-color:#C92C3B"/>
			<stop  offset="0.3253" style="stop-color:#9E2E4C"/>
			<stop  offset="0.4774" style="stop-color:#7D2F59"/>
			<stop  offset="0.6221" style="stop-color:#653062"/>
			<stop  offset="0.7564" style="stop-color:#573168"/>
			<stop  offset="0.87" style="stop-color:#52316A"/>
		</linearGradient>
		<polygon fill="url(#SVGID_54_)" stroke="#244C70" stroke-width="0.2625" stroke-miterlimit="10" points="221.699,134.016 
			214.835,139.285 215.473,140.116 222.195,134.957 		"/>
		
			<linearGradient id="SVGID_56_" gradientUnits="userSpaceOnUse" x1="-8691.8691" y1="-6218.7007" x2="-8691.8691" y2="-6210.4077" gradientTransform="matrix(-0.6089 -0.7933 -0.7933 0.6089 -10004.6836 -2983.0349)">
			<stop  offset="0.21" style="stop-color:#FF2A26"/>
			<stop  offset="0.2143" style="stop-color:#FD2A27"/>
			<stop  offset="0.3186" style="stop-color:#C92C3B"/>
			<stop  offset="0.4212" style="stop-color:#9E2E4C"/>
			<stop  offset="0.52" style="stop-color:#7D2F59"/>
			<stop  offset="0.614" style="stop-color:#653062"/>
			<stop  offset="0.7012" style="stop-color:#573168"/>
			<stop  offset="0.775" style="stop-color:#52316A"/>
		</linearGradient>
		<path fill="url(#SVGID_56_)" stroke="#244C70" stroke-width="0.3938" stroke-miterlimit="10" d="M221.147,125.732
			c0,0-1.245-0.44-3.359,1.054c-2.15,1.518-3.65,3.435-3.65,3.435s1.445-0.902,2.563-1.384c1.178-0.511,1.837,0.204,1.837,0.204
			L221.147,125.732z"/>
		
			<linearGradient id="SVGID_58_" gradientUnits="userSpaceOnUse" x1="-8702.127" y1="-6218.8687" x2="-8702.127" y2="-6210.6211" gradientTransform="matrix(-0.6089 -0.7933 -0.7933 0.6089 -10004.6836 -2983.0349)">
			<stop  offset="0.21" style="stop-color:#FF2A26"/>
			<stop  offset="0.2143" style="stop-color:#FD2A27"/>
			<stop  offset="0.3186" style="stop-color:#C92C3B"/>
			<stop  offset="0.4212" style="stop-color:#9E2E4C"/>
			<stop  offset="0.52" style="stop-color:#7D2F59"/>
			<stop  offset="0.614" style="stop-color:#653062"/>
			<stop  offset="0.7012" style="stop-color:#573168"/>
			<stop  offset="0.775" style="stop-color:#52316A"/>
		</linearGradient>
		<path fill="url(#SVGID_58_)" stroke="#244C70" stroke-width="0.3938" stroke-miterlimit="10" d="M227.283,133.45
			c0,0,0.308,1.41-1.594,3.174c-1.935,1.794-4.213,2.807-4.213,2.807s1.175-1.243,1.846-2.258c0.712-1.077,0.027-1.957,0.027-1.957
			L227.283,133.45z"/>
		
			<linearGradient id="SVGID_60_" gradientUnits="userSpaceOnUse" x1="-8697.1563" y1="-6245.6982" x2="-8697.1563" y2="-6213.4243" gradientTransform="matrix(-0.6089 -0.7933 -0.7933 0.6089 -10004.6836 -2983.0349)">
			<stop  offset="0.21" style="stop-color:#FF2A26"/>
			<stop  offset="0.766" style="stop-color:#F22B2B"/>
			<stop  offset="0.8028" style="stop-color:#C92D3B"/>
			<stop  offset="0.8468" style="stop-color:#9E2E4C"/>
			<stop  offset="0.8895" style="stop-color:#7D2F59"/>
			<stop  offset="0.9303" style="stop-color:#653062"/>
			<stop  offset="0.968" style="stop-color:#573168"/>
			<stop  offset="1" style="stop-color:#52316A"/>
		</linearGradient>
		<path fill="url(#SVGID_60_)" stroke="#244C70" stroke-width="0.3938" stroke-miterlimit="10" d="M238.376,125.067l0.801,0.065
			l6.55-11.719l-13.016,3.296l-0.175,0.749l0.397,0.736c0,0-6.992,3.413-8.188,4.331c-2.401,1.843-6.297,6.788-6.297,6.788
			s0.293,1.951,1.662,3.734c1.37,1.785,3.131,2.511,3.131,2.511s7.104-3.346,8.26-4.232c2.489-1.912,6.227-6.885,6.227-6.885
			L238.376,125.067z"/>
		
			<linearGradient id="SVGID_62_" gradientUnits="userSpaceOnUse" x1="-8697.0898" y1="-6234.8003" x2="-8697.0898" y2="-6232.7612" gradientTransform="matrix(-0.6089 -0.7933 -0.7933 0.6089 -10004.6836 -2983.0349)">
			<stop  offset="0" style="stop-color:#A72A26"/>
			<stop  offset="0.0619" style="stop-color:#9E2B2D"/>
			<stop  offset="0.3226" style="stop-color:#7D2D48"/>
			<stop  offset="0.5722" style="stop-color:#652F5B"/>
			<stop  offset="0.8039" style="stop-color:#573166"/>
			<stop  offset="1" style="stop-color:#52316A"/>
		</linearGradient>
		<path fill="url(#SVGID_62_)" d="M238.998,124.899c0,0-0.551-3.07-1.933-4.871c-1.381-1.799-4.205-3.227-4.205-3.227l-0.21,0.823
			c0,0,2.441,1.221,3.745,2.918s1.823,4.329,1.823,4.329L238.998,124.899z"/>
		<path fill="#441B17" d="M238.218,124.859l-0.701-0.688c0,0,0.095-1.442-1.476-3.489c-1.572-2.046-3.034-2.388-3.034-2.388
			l-0.366-0.683c0,0,2.293,1.028,3.677,2.829C237.699,122.242,238.218,124.859,238.218,124.859z"/>
		
			<ellipse transform="matrix(-0.9728 0.2317 -0.2317 -0.9728 499.1233 173.5322)" fill="#FF6C6C" cx="239.373" cy="116.071" rx="3.892" ry="0.496"/>
		
			<ellipse transform="matrix(-0.8812 0.4728 -0.4728 -0.8812 489.362 118.8207)" fill="#FF6C6C" cx="229.75" cy="120.904" rx="3.891" ry="0.497"/>
		<path fill="#FF6C6C" d="M218.501,126.964c0.036,0.088,0.429,0.004,0.873-0.191c0.444-0.195,0.771-0.424,0.73-0.514
			c-0.039-0.09-0.431-0.004-0.873,0.188C218.788,126.643,218.459,126.874,218.501,126.964z"/>
	</g>
</g>
<g>
	<polygon fill="none" stroke="#FFFFFF" stroke-width="5" stroke-miterlimit="10" points="145.624,101.81 157.868,102.308 
		170.176,94.045 182.754,102.308 194.598,101.611 194.598,140.334 170.176,153.475 145.624,140.633 	"/>
	<polygon fill="none" stroke="#244C70" stroke-width="5" stroke-miterlimit="10" points="145.624,105.587 157.868,106.084 
		170.176,97.823 182.754,106.084 194.598,105.388 194.598,144.112 170.176,157.252 145.624,144.41 	"/>
	<linearGradient id="SVGID_64_" gradientUnits="userSpaceOnUse" x1="170.1113" y1="92.3037" x2="170.1113" y2="157.5635">
		<stop  offset="0" style="stop-color:#FFEF26"/>
		<stop  offset="0.0602" style="stop-color:#FDE926"/>
		<stop  offset="0.6984" style="stop-color:#EAA92B"/>
		<stop  offset="1" style="stop-color:#E3902D"/>
	</linearGradient>
	<polygon fill="none" stroke="url(#SVGID_64_)" stroke-width="5" stroke-miterlimit="10" points="145.624,103.069 157.868,103.568 
		170.176,95.305 182.754,103.568 194.598,102.87 194.598,141.594 170.176,154.733 145.624,141.893 	"/>
	<g>
		
			<linearGradient id="SVGID_65_" gradientUnits="userSpaceOnUse" x1="-8663.6719" y1="-6163.9297" x2="-8664.7461" y2="-6163.9263" gradientTransform="matrix(-0.6089 -0.7933 -0.7933 0.6089 -10004.6836 -2983.0349)">
			<stop  offset="0" style="stop-color:#FF2A26"/>
			<stop  offset="0.0066" style="stop-color:#FD2A27"/>
			<stop  offset="0.1673" style="stop-color:#C92C3B"/>
			<stop  offset="0.3253" style="stop-color:#9E2E4C"/>
			<stop  offset="0.4774" style="stop-color:#7D2F59"/>
			<stop  offset="0.6221" style="stop-color:#653062"/>
			<stop  offset="0.7564" style="stop-color:#573168"/>
			<stop  offset="0.87" style="stop-color:#52316A"/>
		</linearGradient>
		<polygon fill="url(#SVGID_65_)" stroke="#244C70" stroke-width="0.2625" stroke-miterlimit="10" points="163.912,134.016 
			157.048,139.285 157.686,140.116 164.408,134.957 		"/>
		
			<linearGradient id="SVGID_66_" gradientUnits="userSpaceOnUse" x1="-8656.6855" y1="-6172.8623" x2="-8656.6855" y2="-6164.5688" gradientTransform="matrix(-0.6089 -0.7933 -0.7933 0.6089 -10004.6836 -2983.0349)">
			<stop  offset="0.21" style="stop-color:#FF2A26"/>
			<stop  offset="0.2143" style="stop-color:#FD2A27"/>
			<stop  offset="0.3186" style="stop-color:#C92C3B"/>
			<stop  offset="0.4212" style="stop-color:#9E2E4C"/>
			<stop  offset="0.52" style="stop-color:#7D2F59"/>
			<stop  offset="0.614" style="stop-color:#653062"/>
			<stop  offset="0.7012" style="stop-color:#573168"/>
			<stop  offset="0.775" style="stop-color:#52316A"/>
		</linearGradient>
		<path fill="url(#SVGID_66_)" stroke="#244C70" stroke-width="0.3938" stroke-miterlimit="10" d="M163.36,125.732
			c0,0-1.245-0.44-3.359,1.054c-2.15,1.518-3.65,3.435-3.65,3.435s1.445-0.902,2.563-1.384c1.178-0.511,1.837,0.204,1.837,0.204
			L163.36,125.732z"/>
		
			<linearGradient id="SVGID_68_" gradientUnits="userSpaceOnUse" x1="-8666.9434" y1="-6173.0303" x2="-8666.9434" y2="-6164.7827" gradientTransform="matrix(-0.6089 -0.7933 -0.7933 0.6089 -10004.6836 -2983.0349)">
			<stop  offset="0.21" style="stop-color:#FF2A26"/>
			<stop  offset="0.2143" style="stop-color:#FD2A27"/>
			<stop  offset="0.3186" style="stop-color:#C92C3B"/>
			<stop  offset="0.4212" style="stop-color:#9E2E4C"/>
			<stop  offset="0.52" style="stop-color:#7D2F59"/>
			<stop  offset="0.614" style="stop-color:#653062"/>
			<stop  offset="0.7012" style="stop-color:#573168"/>
			<stop  offset="0.775" style="stop-color:#52316A"/>
		</linearGradient>
		<path fill="url(#SVGID_68_)" stroke="#244C70" stroke-width="0.3938" stroke-miterlimit="10" d="M169.496,133.45
			c0,0,0.308,1.41-1.594,3.174c-1.935,1.794-4.213,2.807-4.213,2.807s1.175-1.243,1.846-2.258c0.712-1.077,0.027-1.957,0.027-1.957
			L169.496,133.45z"/>
		
			<linearGradient id="SVGID_70_" gradientUnits="userSpaceOnUse" x1="-8661.9727" y1="-6199.8599" x2="-8661.9727" y2="-6167.5854" gradientTransform="matrix(-0.6089 -0.7933 -0.7933 0.6089 -10004.6836 -2983.0349)">
			<stop  offset="0.21" style="stop-color:#FF2A26"/>
			<stop  offset="0.766" style="stop-color:#F22B2B"/>
			<stop  offset="0.8028" style="stop-color:#C92D3B"/>
			<stop  offset="0.8468" style="stop-color:#9E2E4C"/>
			<stop  offset="0.8895" style="stop-color:#7D2F59"/>
			<stop  offset="0.9303" style="stop-color:#653062"/>
			<stop  offset="0.968" style="stop-color:#573168"/>
			<stop  offset="1" style="stop-color:#52316A"/>
		</linearGradient>
		<path fill="url(#SVGID_70_)" stroke="#244C70" stroke-width="0.3938" stroke-miterlimit="10" d="M180.589,125.067l0.801,0.065
			l6.55-11.719l-13.016,3.296l-0.175,0.749l0.397,0.736c0,0-6.992,3.413-8.188,4.331c-2.401,1.843-6.297,6.788-6.297,6.788
			s0.293,1.951,1.662,3.734c1.37,1.785,3.131,2.511,3.131,2.511s7.104-3.346,8.26-4.232c2.489-1.912,6.227-6.885,6.227-6.885
			L180.589,125.067z"/>
		
			<linearGradient id="SVGID_72_" gradientUnits="userSpaceOnUse" x1="-8661.9063" y1="-6188.9614" x2="-8661.9063" y2="-6186.9229" gradientTransform="matrix(-0.6089 -0.7933 -0.7933 0.6089 -10004.6836 -2983.0349)">
			<stop  offset="0" style="stop-color:#A72A26"/>
			<stop  offset="0.0619" style="stop-color:#9E2B2D"/>
			<stop  offset="0.3226" style="stop-color:#7D2D48"/>
			<stop  offset="0.5722" style="stop-color:#652F5B"/>
			<stop  offset="0.8039" style="stop-color:#573166"/>
			<stop  offset="1" style="stop-color:#52316A"/>
		</linearGradient>
		<path fill="url(#SVGID_72_)" d="M181.211,124.899c0,0-0.551-3.07-1.933-4.871c-1.381-1.799-4.205-3.227-4.205-3.227l-0.21,0.823
			c0,0,2.441,1.221,3.745,2.918s1.823,4.329,1.823,4.329L181.211,124.899z"/>
		<path fill="#441B17" d="M180.431,124.859l-0.701-0.688c0,0,0.095-1.442-1.476-3.489c-1.572-2.046-3.034-2.388-3.034-2.388
			l-0.366-0.683c0,0,2.293,1.028,3.677,2.829C179.912,122.242,180.431,124.859,180.431,124.859z"/>
		
			<ellipse transform="matrix(-0.9728 0.2317 -0.2317 -0.9728 385.121 186.9189)" fill="#FF6C6C" cx="181.586" cy="116.071" rx="3.892" ry="0.496"/>
		
			<ellipse transform="matrix(-0.8812 0.4728 -0.4728 -0.8812 380.654 146.1412)" fill="#FF6C6C" cx="171.963" cy="120.904" rx="3.891" ry="0.497"/>
		<path fill="#FF6C6C" d="M160.714,126.964c0.036,0.088,0.429,0.004,0.873-0.191c0.444-0.195,0.771-0.424,0.73-0.514
			c-0.039-0.09-0.431-0.004-0.873,0.188C161.001,126.643,160.672,126.874,160.714,126.964z"/>
	</g>
</g>
<linearGradient id="SVGID_74_" gradientUnits="userSpaceOnUse" x1="-1530.5225" y1="1103.9746" x2="-1483.724" y2="1075.8235" gradientTransform="matrix(-0.5071 -0.8619 0.8619 -0.5071 -1401.1718 -640.0776)">
	<stop  offset="0" style="stop-color:#DE875E"/>
	<stop  offset="1" style="stop-color:#F0CC95"/>
</linearGradient>
<path fill="url(#SVGID_74_)" stroke="#FFFFFF" stroke-miterlimit="10" d="M309.984,128.188c-5.431-9.228-8.686-2.722-15.307-4.624
	c-3.123-0.896-11.579-11.015-7.345-13.507c4.648-2.734,4.308,4.169,7.861,5.033c-4.449-6.362-12.09-19.499-14.337-24.575
	c-1.134-2.566,2.627-5.996,5.392-2.337c1.554,2.051,6.149,10.061,8.55,13.773c-0.89-1.511-1.764-3.235-2.334-4.203
	c-2.087-3.548,3.604-6.244,5.144-3.628c0.564,0.959,1.874,2.709,2.822,4.321c-0.794-1.35-1.366-2.558-1.875-3.421
	c-1.67-2.838,3.96-6.311,5.539-3.588c0.538,0.928,1.104,1.749,1.923,3.114c-0.694-1.3-0.832-1.777-1.224-2.442
	c-1.644-2.793,4.101-6.058,6.39-2.168c1.373,2.333,4.421,6.214,5.882,8.381c1.399,2.073,4,5.886,4.463,8.353
	c0.569,3.037-1.646,4.759-1.32,7.43c0.363,3.028,3.616,6.69,5.392,9.073c-4.771,2.807-9.662,5.894-13.868,8.623
	C311.731,131.793,310.515,129.09,309.984,128.188z"/>
<rect x="334.969" y="34.312" transform="matrix(-0.7069 0.7073 -0.7073 -0.7069 603.3083 -166.0379)" fill="#FFFFFF" width="2.177" height="15.349"/>
<rect x="334.969" y="35.687" transform="matrix(-0.7069 0.7073 -0.7073 -0.7069 604.2816 -163.6892)" fill="#244C70" width="2.177" height="15.351"/>
<linearGradient id="SVGID_76_" gradientUnits="userSpaceOnUse" x1="335.7393" y1="36.1074" x2="335.7393" y2="48.502">
	<stop  offset="0" style="stop-color:#FFEF26"/>
	<stop  offset="0.0602" style="stop-color:#FDE926"/>
	<stop  offset="0.6984" style="stop-color:#EAA92B"/>
	<stop  offset="1" style="stop-color:#E3902D"/>
</linearGradient>
<polygon fill="url(#SVGID_76_)" points="340.397,48.502 341.937,46.961 331.082,36.107 329.542,37.646 "/>
<path fill="#FFFFFF" d="M329.179,53.521c0-5.117,5.299-9.492,11.911-9.492c6.611,0,11.91,4.182,11.91,9.298c0,0.012,0,0.674,0,0.674
	h-23.818C329.182,54,329.179,53.531,329.179,53.521z"/>
<path fill="#244C70" d="M329.179,53.732c0-5.116,5.299-9.385,11.911-9.385c6.611,0,11.91,4.326,11.91,9.442c0,0.012,0,0.21,0,0.21
	h-23.818C329.182,54,329.179,53.744,329.179,53.732z"/>
<linearGradient id="SVGID_78_" gradientUnits="userSpaceOnUse" x1="341.0898" y1="45.1689" x2="341.0898" y2="54">
	<stop  offset="0" style="stop-color:#FFEF26"/>
	<stop  offset="0.0602" style="stop-color:#FDE926"/>
	<stop  offset="0.6984" style="stop-color:#EAA92B"/>
	<stop  offset="1" style="stop-color:#E3902D"/>
</linearGradient>
<path fill="url(#SVGID_78_)" d="M329.179,53.765c0-4.688,5.299-8.596,11.911-8.596c6.611,0,11.91,3.958,11.91,8.646
	c0,0.011,0,0.185,0,0.185h-23.818C329.182,54,329.179,53.773,329.179,53.765z"/>
<circle fill="#244C70" cx="328.188" cy="34.601" r="2.601"/>
<path fill="#244C70" d="M328.189,30.695c-2.441,0-4.42,1.978-4.42,4.418c0,2.439,1.979,4.417,4.42,4.417
	c2.438,0,4.417-1.978,4.417-4.417C332.606,32.673,330.627,30.695,328.189,30.695z M328.189,37.715c-1.438,0-2.603-1.166-2.603-2.602
	c0-1.437,1.164-2.603,2.603-2.603c1.435,0,2.6,1.166,2.6,2.603C330.789,36.549,329.624,37.715,328.189,37.715z"/>
<path fill="#FFFFFF" d="M328.189,29.787c-2.441,0-4.42,1.979-4.42,4.418s1.979,4.418,4.42,4.418c2.438,0,4.417-1.979,4.417-4.418
	S330.627,29.787,328.189,29.787z M328.189,36.805c-1.438,0-2.603-1.163-2.603-2.6s1.164-2.602,2.603-2.602
	c1.435,0,2.6,1.165,2.6,2.602S329.624,36.805,328.189,36.805z"/>
<linearGradient id="SVGID_80_" gradientUnits="userSpaceOnUse" x1="328.1875" y1="30.165" x2="328.1875" y2="39.002">
	<stop  offset="0" style="stop-color:#FFEF26"/>
	<stop  offset="0.0602" style="stop-color:#FDE926"/>
	<stop  offset="0.6984" style="stop-color:#EAA92B"/>
	<stop  offset="1" style="stop-color:#E3902D"/>
</linearGradient>
<path fill="url(#SVGID_80_)" d="M328.189,30.165c-2.441,0-4.42,1.979-4.42,4.419c0,2.438,1.979,4.418,4.42,4.418
	c2.438,0,4.417-1.979,4.417-4.418C332.606,32.144,330.627,30.165,328.189,30.165z M328.189,37.185c-1.438,0-2.603-1.165-2.603-2.601
	c0-1.438,1.164-2.602,2.603-2.602c1.435,0,2.6,1.164,2.6,2.602C330.789,36.02,329.624,37.185,328.189,37.185z"/>
<rect x="296.453" y="34.312" transform="matrix(0.7069 0.7073 -0.7073 0.7069 116.9129 -198.1534)" fill="#FFFFFF" width="2.177" height="15.349"/>
<rect x="296.453" y="35.687" transform="matrix(0.7069 0.7073 -0.7073 0.7069 117.8861 -197.7501)" fill="#244C70" width="2.177" height="15.351"/>
<linearGradient id="SVGID_82_" gradientUnits="userSpaceOnUse" x1="-5620.1416" y1="36.1074" x2="-5620.1416" y2="48.502" gradientTransform="matrix(-1 0 0 1 -5322.2832 0)">
	<stop  offset="0" style="stop-color:#FFEF26"/>
	<stop  offset="0.0602" style="stop-color:#FDE926"/>
	<stop  offset="0.6984" style="stop-color:#EAA92B"/>
	<stop  offset="1" style="stop-color:#E3902D"/>
</linearGradient>
<polygon fill="url(#SVGID_82_)" points="293.201,48.502 291.662,46.961 302.516,36.107 304.055,37.646 "/>
<path fill="#FFFFFF" d="M304,53.276c0-5.117-4.887-9.37-11.5-9.37c-6.612,0-11.5,4.304-11.5,9.42c0,0.012,0,0.674,0,0.674h23
	C304,54,304,53.287,304,53.276z"/>
<path fill="#244C70" d="M304,53.732c0-5.116-4.887-9.385-11.5-9.385c-6.612,0-11.5,4.326-11.5,9.442c0,0.012,0,0.21,0,0.21h23
	C304,54,304,53.744,304,53.732z"/>
<linearGradient id="SVGID_84_" gradientUnits="userSpaceOnUse" x1="-5614.7832" y1="45.1689" x2="-5614.7832" y2="54" gradientTransform="matrix(-1 0 0 1 -5322.2832 0)">
	<stop  offset="0" style="stop-color:#FFEF26"/>
	<stop  offset="0.0602" style="stop-color:#FDE926"/>
	<stop  offset="0.6984" style="stop-color:#EAA92B"/>
	<stop  offset="1" style="stop-color:#E3902D"/>
</linearGradient>
<path fill="url(#SVGID_84_)" d="M304,53.765c0-4.688-4.887-8.596-11.5-8.596c-6.612,0-11.5,3.958-11.5,8.646
	c0,0.011,0,0.185,0,0.185h23C304,54,304,53.773,304,53.765z"/>
<path fill="#244C70" d="M300.992,35.113c0,2.439,1.978,4.417,4.417,4.417s4.419-1.978,4.419-4.417c0-2.44-1.979-4.418-4.419-4.418
	S300.992,32.673,300.992,35.113z M302.809,35.113c0-1.437,1.164-2.603,2.601-2.603s2.603,1.166,2.603,2.603
	c0,1.436-1.166,2.602-2.603,2.602S302.809,36.549,302.809,35.113z"/>
<path fill="#FFFFFF" d="M300.992,34.205c0,2.439,1.978,4.418,4.417,4.418s4.419-1.979,4.419-4.418s-1.979-4.418-4.419-4.418
	S300.992,31.766,300.992,34.205z M302.809,34.205c0-1.437,1.164-2.602,2.601-2.602s2.603,1.165,2.603,2.602s-1.166,2.6-2.603,2.6
	S302.809,35.642,302.809,34.205z"/>
<linearGradient id="SVGID_86_" gradientUnits="userSpaceOnUse" x1="-5627.6934" y1="30.165" x2="-5627.6934" y2="39.002" gradientTransform="matrix(-1 0 0 1 -5322.2832 0)">
	<stop  offset="0" style="stop-color:#FFEF26"/>
	<stop  offset="0.0602" style="stop-color:#FDE926"/>
	<stop  offset="0.6984" style="stop-color:#EAA92B"/>
	<stop  offset="1" style="stop-color:#E3902D"/>
</linearGradient>
<path fill="url(#SVGID_86_)" d="M300.992,34.584c0,2.438,1.978,4.418,4.417,4.418s4.419-1.979,4.419-4.418
	c0-2.44-1.979-4.419-4.419-4.419S300.992,32.144,300.992,34.584z"/>
<circle fill="#244C70" cx="305.007" cy="69.667" r="4.84"/>
<circle fill="#D60000" cx="305.007" cy="69.667" r="3.601"/>
<g>
	<g>
		<linearGradient id="SVGID_88_" gradientUnits="userSpaceOnUse" x1="370.0234" y1="181.1421" x2="370.0234" y2="132.8535">
			<stop  offset="0.21" style="stop-color:#FF2A26"/>
			<stop  offset="0.766" style="stop-color:#F22B2B"/>
			<stop  offset="0.8028" style="stop-color:#C92D3B"/>
			<stop  offset="0.8468" style="stop-color:#9E2E4C"/>
			<stop  offset="0.8895" style="stop-color:#7D2F59"/>
			<stop  offset="0.9303" style="stop-color:#653062"/>
			<stop  offset="0.968" style="stop-color:#573168"/>
			<stop  offset="1" style="stop-color:#52316A"/>
		</linearGradient>
		<path fill-rule="evenodd" clip-rule="evenodd" fill="url(#SVGID_88_)" d="M358.393,150.305c0.109,0.37,0.185,0.753,0.337,1.104
			c0.694,1.627,1.406,3.244,2.593,4.592c-0.018,0.206,0.077,0.368,0.186,0.536c1.042,1.604,1.938,3.282,2.535,5.107
			c0.057,0.35,0.118,0.7,0.174,1.05c0.271,1.654,0.156,3.299-0.117,4.942c-0.249,2.109,0,4.165,0.656,6.178
			c1.232,3.638,3.892,5.848,7.299,7.309c0.091,0.039,0.207,0.01,0.314,0.01c-1.521-2.082-2.128-4.434-2.063-6.985
			c0.1-2.173,0.923-4.11,1.962-5.975c1.23-2.047,2.723-3.916,4.103-5.858c1.354-1.66,2.606-3.389,3.586-5.301
			c0.871-1.589,1.622-3.228,1.925-5.033c0.512-1.754,0.685-3.529,0.342-5.339c-0.099-1.842-0.624-3.56-1.513-5.171
			c-0.587-1.416-1.513-2.594-2.58-3.677c-0.031-0.038-0.067-0.074-0.104-0.111l-0.028-0.031c-0.104-0.105-0.202-0.212-0.31-0.318
			l-0.021-0.022c-1.721-1.888-2.074-3.46-4.5-4.183c-1-0.298-6.815-0.345-7.887-0.168c-1.971,0.327-0.756,1.126-2.339,2.351
			c-2.601,2.01-4.292,4.613-5.029,7.825C357.43,145.567,357.611,147.956,358.393,150.305z M364.652,161.48
			c0.308-0.049,0.617-0.06,0.927-0.055C365.27,161.42,364.96,161.432,364.652,161.48z M376.89,137.148
			c-0.392-0.066-0.778-0.107-1.176-0.112C376.111,137.041,376.498,137.082,376.89,137.148z M359.855,142.632
			c0.361-1.311,0.656-2.652,1.672-3.667c0.25-0.861,0.924-1.447,1.507-2.036c1.306-1.315,2.789-2.428,4.454-3.273
			c0.85-0.429,1.658-0.478,2.52,0.042c1.636,0.985,3.189,2.066,4.524,3.442l0,0c0.441,0.556,0.883,1.112,1.325,1.668
			c0.528,0.873,1.099,1.724,1.511,2.662c0.165,0.391,0.326,0.781,0.491,1.172c0.217,1.28,0.83,2.489,0.663,3.837
			c0.005,0.052,0.006,0.107,0.012,0.159c-0.127,1.406-0.095,2.833-0.658,4.17c-0.06,0.389-0.12,0.777-0.182,1.166l0,0
			c-0.502,0.922-0.805,1.927-1.203,2.892c-0.115,0.276-0.205,0.577-0.455,0.777c-0.011,0.46-0.455,0.729-0.518,1.166
			c-0.949,1.261-1.523,2.745-2.41,4.046c-0.203,0.3-0.408,0.587-0.706,0.798c-0.013,0.108-0.025,0.215-0.039,0.325
			c-1.36,1.943-2.598,3.958-3.493,6.167l0,0c-0.729,1.821-0.927,3.723-0.833,5.666c0.077,0.873,0.351,1.701,0.604,2.545
			c-0.943-0.704-1.312-1.802-1.947-2.708c-0.865-2.027-1.082-4.16-1.004-6.337c0.159-1.687,0.287-0.116,0.762-1.757
			c0.077-0.258,0.066,2.449,0.093,2.449h-0.03l0,0c0.284,0,1.709-9.227,1.521-11.112c-0.197-0.996-1.134-3.792-2.031-4.615
			c-0.092,0.792-0.86,2.766-0.94,3.453c-0.116,0.976,0.138,0.626-0.516,1.326c-0.123,0.13-0.461,0.781-0.683,0.677
			c-0.22-0.103-0.03,0.063,0.025-0.098c0.234-0.678,0.115-1.421,0.134-2.108c-0.113-1.284-0.696-2.427-1.254-3.55
			c-0.138-0.27-0.27-0.552-0.404-0.822c-0.393-0.306-0.36-0.918-0.824-1.172c-0.469-0.03-0.938-0.096-1.402-0.102
			c0.465,0.006,0.934,0.065,1.402,0.096c-0.366-1.091-1.079-2.032-1.342-3.167c-0.546-1.24-0.286-2.548-0.33-3.831
			C359.865,142.86,359.86,142.747,359.855,142.632c-0.513-0.15-0.929,0.071-1.354,0.273
			C358.927,142.703,359.343,142.482,359.855,142.632z"/>
		<linearGradient id="SVGID_90_" gradientUnits="userSpaceOnUse" x1="372.3779" y1="181.1592" x2="372.3779" y2="181.1299">
			<stop  offset="0.21" style="stop-color:#FF2A26"/>
			<stop  offset="0.766" style="stop-color:#F22B2B"/>
			<stop  offset="0.8028" style="stop-color:#C92D3B"/>
			<stop  offset="0.8468" style="stop-color:#9E2E4C"/>
			<stop  offset="0.8895" style="stop-color:#7D2F59"/>
			<stop  offset="0.9303" style="stop-color:#653062"/>
			<stop  offset="0.968" style="stop-color:#573168"/>
			<stop  offset="1" style="stop-color:#52316A"/>
		</linearGradient>
		<polygon fill-rule="evenodd" clip-rule="evenodd" fill="url(#SVGID_90_)" points="372.387,181.159 372.374,181.131 
			372.374,181.13 372.369,181.131 372.377,181.141 		"/>
	</g>
	<linearGradient id="SVGID_92_" gradientUnits="userSpaceOnUse" x1="369.1982" y1="176.4502" x2="369.1982" y2="132.8667">
		<stop  offset="0" style="stop-color:#FFEF26"/>
		<stop  offset="0.2446" style="stop-color:#FEEC26"/>
		<stop  offset="0.441" style="stop-color:#FBE227"/>
		<stop  offset="0.6207" style="stop-color:#F6D128"/>
		<stop  offset="0.7904" style="stop-color:#EFB92A"/>
		<stop  offset="0.9516" style="stop-color:#E69B2C"/>
		<stop  offset="1" style="stop-color:#E3902D"/>
	</linearGradient>
	<path fill-rule="evenodd" clip-rule="evenodd" fill="url(#SVGID_92_)" d="M359.87,142.976c0.044,1.282-0.216,2.591,0.33,3.831
		c0.263,1.135,0.976,2.076,1.342,3.167c0.464,0.254,0.432,0.86,0.824,1.166c0.135,0.269,0.267,0.539,0.404,0.809
		c0.558,1.123,1.141,2.238,1.254,3.524c-0.019,0.686,0.101,1.378-0.134,2.057c-0.056,0.159-0.122,0.415,0.099,0.518
		c0.222,0.104,0.347-0.127,0.47-0.257c0.653-0.7,1.123-1.498,1.239-2.471c0.079-0.687,0.163-1.373,0.254-2.166
		c0.898,0.823,1.063,2.596,1.26,3.592c0.19,1.887-0.413,2.256-0.697,6.256h0.03c-0.026,0-0.016-0.206-0.093,0.052
		c-0.475,1.642-0.603,2.951-0.762,4.638c-0.078,2.179,0.139,4.118,1.004,6.147c0.636,0.906,1.004,1.91,1.947,2.614
		c-0.254-0.846-0.527-1.722-0.604-2.593c-0.094-1.945,0.104-3.869,0.833-5.69c0.896-2.209,2.133-4.234,3.493-6.178
		c0.014-0.109,0.542-0.832,0.745-1.133c0.887-1.301,2.917-4.754,2.928-5.214c0.25-0.2,0.34-0.501,0.455-0.777
		c0.398-0.965,0.701-1.969,1.203-2.892c0.062-0.389,0.122-0.777,0.182-1.166c0.563-1.336,0.531-2.764,0.658-4.17
		c-0.006-0.052-0.007-0.107-0.012-0.159c0.167-1.348-0.446-2.557-0.663-3.837c-0.165-0.392-0.326-0.782-0.491-1.172
		c-0.412-0.938-0.982-1.789-1.511-2.662c-0.442-0.557-0.884-1.113-1.325-1.668c-1.335-1.376-1.766-3.235-3.401-4.22
		c-2.964-0.002-1.933-0.057-4.34-0.052c-1.665,0.845-2.451,2.746-3.757,4.061c-0.583,0.589-1.257,1.175-1.507,2.036
		c-1.016,1.015-1.311,2.357-1.672,3.667C359.86,142.747,359.865,142.86,359.87,142.976L359.87,142.976z"/>
</g>
<linearGradient id="SVGID_94_" gradientUnits="userSpaceOnUse" x1="337.7559" y1="169.7554" x2="337.7559" y2="131.7935">
	<stop  offset="0" style="stop-color:#FFEF26"/>
	<stop  offset="0.2446" style="stop-color:#FEEC26"/>
	<stop  offset="0.441" style="stop-color:#FBE227"/>
	<stop  offset="0.6207" style="stop-color:#F6D128"/>
	<stop  offset="0.7904" style="stop-color:#EFB92A"/>
	<stop  offset="0.9516" style="stop-color:#E69B2C"/>
	<stop  offset="1" style="stop-color:#E3902D"/>
</linearGradient>
<path fill-rule="evenodd" clip-rule="evenodd" fill="url(#SVGID_94_)" d="M330.163,146.445c0.389,0.742,0.389,0.742,0.664,0.335
	c-0.006-0.229,0.092-0.417,0.184-0.625c0.758-1.709,2.093-2.842,3.668-3.744c1.324-0.863,1.324-0.863,1.997,0.182
	c0.043,0.245,0.081,0.492,0.13,0.735c0.211,1.037,0.381,2.075,0.09,3.126c-0.011,0.109-0.021,0.217-0.031,0.326
	c0.056,0.455-0.132,0.865-0.221,1.296c-0.174,0.853-0.801,1.508-0.972,2.356c-0.216,0.236-0.431,0.473-0.647,0.709
	c-0.124,0.212-0.252,0.421-0.372,0.636c-0.515,0.925-1.21,1.77-1.306,2.884c-0.282,0.756-0.347,1.545-0.365,2.342
	c0.033,0.771-0.035,1.564,0.123,2.309c0.238,1.124,0.462,2.246,0.58,3.388c0.774,2.175,1.682,4.295,2.678,6.377
	c0.222,0.226,0.443,0.451,0.666,0.676l0.006-0.005c-0.002-0.167-0.004-0.333-0.006-0.5c-0.709-1.868-0.588-3.782-0.321-5.705
	c0.326-1.564,0.58-3.152,1.491-4.523c0.588-1.448,1.537-2.687,2.328-4.018c0.344-0.507,0.687-1.013,1.03-1.52
	c0.472-0.914,1.178-1.694,1.524-2.679c0.691-0.79,0.99-1.8,1.51-2.687c0.051-0.403,0.432-0.709,0.342-1.155c0,0,0,0-0.001,0
	c0.374-0.274,0.403-0.698,0.481-1.103c0.113-0.587,0.087-1.201,0.334-1.763c-0.002-0.391-0.004-0.781-0.006-1.171
	c0.07-1.153-0.214-2.253-0.5-3.354c-0.105-0.282-0.211-0.563-0.316-0.845c-0.333-0.85-0.795-1.61-1.514-2.193
	c-0.06-0.441-0.354-0.731-0.64-1.038c-1.187-1.276-1.99-2.177-0.646-3.704c-0.223-0.001-5.841,0.001-6.063,0
	c0.077,0.589,1.956,1.319,1.669,1.8c-0.669,1.12-1.855,1.699-2.707,2.625c-0.528,0.305-0.91,0.828-1.512,1.024
	c-0.562,0.606-1.123,1.212-1.684,1.819c-0.885,0.644-1.229,1.677-1.824,2.529c0.004,0.06,0.01,0.119,0.014,0.179
	C329.595,143.343,329.729,144.898,330.163,146.445z M344.633,146.793c0.091,0.015,0.175,0.045,0.246,0.112
	C344.808,146.838,344.724,146.808,344.633,146.793z"/>
<linearGradient id="SVGID_96_" gradientUnits="userSpaceOnUse" x1="339.9092" y1="180.4355" x2="339.9092" y2="131.7886">
	<stop  offset="0.21" style="stop-color:#FF2A26"/>
	<stop  offset="0.766" style="stop-color:#F22B2B"/>
	<stop  offset="0.8028" style="stop-color:#C92D3B"/>
	<stop  offset="0.8468" style="stop-color:#9E2E4C"/>
	<stop  offset="0.8895" style="stop-color:#7D2F59"/>
	<stop  offset="0.9303" style="stop-color:#653062"/>
	<stop  offset="0.968" style="stop-color:#573168"/>
	<stop  offset="1" style="stop-color:#52316A"/>
</linearGradient>
<path fill-rule="evenodd" clip-rule="evenodd" fill="url(#SVGID_96_)" d="M327.289,141.733c0.005,0.005,0.007,0.01,0.012,0.015
	c0.005,0.001,0.01,0.003,0.015,0.004l0,0c0.057,0.015,0.112,0.03,0.168,0.046c-0.056-0.016-0.111-0.031-0.168-0.046
	c0.069,0.29-0.181,0.437-0.303,0.633c-0.846,1.357-1.304,2.861-1.688,4.395c-0.389,1.484-0.552,2.992-0.467,4.525
	c0.075,3.387,0.973,6.519,2.782,9.369c-0.322-2.98,0.325-5.712,1.739-8.292c0.052,0.048,0.104,0.096,0.154,0.145
	c-0.352,1.484-0.716,2.966-0.67,4.509c0.684-0.298,1.369-0.41,2.056-0.395c-0.687-0.015-1.372,0.097-2.056,0.395
	c-0.013,0.278-0.031,0.556-0.038,0.834c-0.045,1.761,0.302,3.47,0.696,5.172c0.688,3.126,2.035,5.961,3.828,8.862
	c-0.357-2.394-0.301-3.234,0.23-4.004c0.092,0.519,0.18,1.018,0.268,1.518c0.34,1.987,1.232,3.735,2.335,5.393
	c1.498,2.508,3.505,4.45,6.225,5.626c-1.435-1.757-2.082-3.794-2.331-5.988c0.014-1.7,0.283-3.364,0.72-5.004
	c0.559-1.845,1.375-3.593,2.048-5.395c0.346-0.72,0.45-1.484,0.424-2.273c0.092-0.064,0.168-0.179,0.307-0.101
	c0.042,2.189,1.189,4.902,2.317,5.478c-0.503-2.195-0.064-4.014,1.381-5.759c0.282-0.341,0.548-0.697,0.821-1.046
	c0.044-0.048,0.088-0.097,0.133-0.145c0.074-0.094,0.149-0.188,0.224-0.281c0.058-0.071,0.114-0.142,0.173-0.212
	c-0.004,0.003-0.007,0.007-0.01,0.011c0,0,0.017-0.02,0.016-0.02c-0.002,0.003-0.004,0.006-0.006,0.009
	c0.051-0.059,0.102-0.118,0.152-0.177c-0.013-0.532,0.224,0.001,0.224,0.001c2-1.627,2.412-3.371,2.715-5.545
	c0.537-1.778-0.181-3.392-0.726-5.032c1.631,1.322,1.829,3.1,1.562,5.243c1.234-2.028,1.527-3.985,1-6.08l0,0
	c-0.137-0.894-0.37-1.758-0.847-2.54c-0.025-0.047-0.054-0.094-0.081-0.141c-0.006-0.213-0.122-0.375-0.259-0.524
	c-0.074-0.122-0.148-0.243-0.223-0.364c-0.006-0.128-0.052-0.234-0.177-0.29c-0.037-0.284-0.367-0.469-0.307-0.827
	c0.381-0.056,0.604,0.182,0.843,0.349c0.912,0.642,1.549,1.509,2.011,2.515c0.065,0.141,0.119,0.349,0.343,0.281
	c0.173-0.053,0.126-0.23,0.105-0.354c-0.469-2.792-1.596-5.296-3.316-7.538c-0.455-0.909-1.192-1.588-1.908-2.271
	c-3.037-2.894-3.414-4.603-7.61-4.624c-1.344,1.738-0.54,2.428,0.646,3.704c0.285,0.306,0.58,0.596,0.64,1.037
	c0.719,0.583,1.181,1.343,1.514,2.193l0,0c0.105,0.282,0.211,0.563,0.316,0.845c0.286,1.1,0.57,2.2,0.5,3.354
	c0.002,0.39,0.004,0.78,0.006,1.171c-0.247,0.562-0.221,1.176-0.334,1.763c-0.078,0.405-0.107,0.829-0.481,1.103
	c0.091,0.446-0.29,0.752-0.341,1.155c-0.52,0.886-0.818,1.897-1.51,2.687c-0.347,0.985-1.053,1.765-1.524,2.679
	c0.071,0.101,0.152,0.141,0.239,0.146c-0.087-0.006-0.168-0.045-0.239-0.146c-0.344,0.507-0.687,1.013-1.03,1.52
	c-0.791,1.331-1.74,2.57-2.328,4.018c2.271-0.21,4.543-0.249,6.815-0.157c-2.272-0.092-4.544-0.053-6.815,0.157
	c-0.911,1.372-1.165,2.959-1.491,4.523h0.001c-0.268,1.923-0.389,3.837,0.32,5.705c0.002,0.167,0.004,0.333,0.006,0.5l-0.006,0.005
	c-0.223-0.226-0.444-0.451-0.666-0.676c-0.462,0.132-0.943,0.117-1.421,0.137c-0.159,0.007-0.317,0.018-0.475,0.039
	c0.157-0.021,0.315-0.032,0.475-0.039c0.478-0.021,0.959-0.005,1.421-0.137c-0.996-2.083-1.903-4.202-2.678-6.377
	c-0.118-1.143-0.342-2.286-0.58-3.41c-0.158-0.745-0.09-1.492-0.123-2.331c-0.001,0-0.001,0-0.001,0
	c0.02-0.838,0.084-1.564,0.366-2.32c0.096-1.115,0.791-1.948,1.306-2.874c0.12-0.215,0.248-0.419,0.372-0.631
	c0.217-0.237,0.432-0.471,0.647-0.707c0.171-0.848,0.798-1.502,0.972-2.355c0.089-0.431,0.276-0.84,0.221-1.295
	c0.01-0.109,0.021-0.217,0.031-0.326c0.291-1.051,0.121-2.088-0.09-3.125c-0.049-0.244-0.087-0.49-0.13-0.735
	c-0.673-1.044-0.673-1.044-1.997-0.182c-1.575,0.902-2.91,2.034-3.668,3.744c-0.092,0.208-0.189,0.396-0.184,0.625
	c-0.275,0.407-0.275,0.407-0.664-0.335c-0.434-1.546-0.568-3.102-0.144-4.674c-0.005-0.06,0.925-2.065,1.81-2.708
	c0.561-0.606,2.667-2.538,3.195-2.843c0.852-0.926,2.038-1.505,2.707-2.625c0.287-0.481-1.592-1.211-1.669-1.8
	c-0.164,0.009-0.004-0.021-0.164,0.009c-2.521,0.472-3.009,2.152-5.104,3.612c-0.945,0.658-1.995,1.586-2.688,2.586
	c0.003,0-3.096,4.117-3.241,6.925c0.489-0.937,1.007-1.951,1.764-2.695C326.805,142.055,326.927,141.609,327.289,141.733z
	 M350.479,138.71c-0.925,0.023-1.851,0.028-2.776,0.027C348.628,138.738,349.554,138.733,350.479,138.71z M339.563,163.557
	c-0.317,0.003-0.635,0.003-0.952,0.001C338.928,163.56,339.245,163.56,339.563,163.557z M329.272,137c0.002,0,0.003,0,0.003,0
	S329.274,137,329.272,137z M329.354,136.799c0.007-0.001,0.013-0.003,0.019-0.004C329.367,136.796,329.361,136.798,329.354,136.799z
	 M329.44,136.785c0.011-0.001,0.021-0.003,0.031-0.004C329.461,136.781,329.451,136.784,329.44,136.785z M329.571,138
	c-0.013,0-0.025,0-0.037,0C329.546,138,329.559,138,329.571,138z"/>
<g>
	<linearGradient id="SVGID_98_" gradientUnits="userSpaceOnUse" x1="160.2715" y1="15.1885" x2="183.7646" y2="15.1885">
		<stop  offset="0" style="stop-color:#FFEF26"/>
		<stop  offset="0.0602" style="stop-color:#FDE926"/>
		<stop  offset="0.6984" style="stop-color:#EAA92B"/>
		<stop  offset="1" style="stop-color:#E3902D"/>
	</linearGradient>
	<linearGradient id="SVGID_100_" gradientUnits="userSpaceOnUse" x1="159.2158" y1="15.1885" x2="184.8213" y2="15.1885">
		<stop  offset="0" style="stop-color:#FFEF26"/>
		<stop  offset="0.0602" style="stop-color:#FDE926"/>
		<stop  offset="0.6984" style="stop-color:#EAA92B"/>
		<stop  offset="1" style="stop-color:#E3902D"/>
	</linearGradient>
	<path fill="url(#SVGID_98_)" stroke="url(#SVGID_100_)" stroke-width="1.8258" stroke-miterlimit="10" d="M163.184,12.823
		l-2.849-0.766c1.119-4.16,4.396-7.436,8.553-8.55c4.261-1.141,8.745,0.177,11.739,3.194l0.195-2.235
		c0.043-0.485,0.474-0.848,0.959-0.805l1.176,0.103c0.484,0.043,0.847,0.474,0.805,0.959l-0.644,7.346
		c-0.015,0.162-0.157,0.282-0.319,0.268l-7.346-0.643c-0.485-0.042-0.847-0.474-0.805-0.959l0.102-1.175
		c0.043-0.485,0.475-0.847,0.959-0.804l3.06,0.268c-2.26-2.459-5.778-3.562-9.118-2.667C166.509,7.199,164.029,9.676,163.184,12.823
		z M174.385,24.021c-3.34,0.895-6.857-0.208-9.118-2.667l3.06,0.268c0.485,0.043,0.916-0.319,0.959-0.804l0.103-1.175
		c0.043-0.485-0.319-0.916-0.804-0.959l-7.347-0.642c-0.161-0.014-0.306,0.106-0.32,0.268l-0.642,7.346
		c-0.044,0.485,0.319,0.916,0.804,0.959l1.176,0.103c0.484,0.043,0.916-0.319,0.959-0.804l0.196-2.243
		c2.272,2.292,5.399,3.608,8.641,3.608c1.029,0,2.07-0.132,3.097-0.407c4.157-1.114,7.436-4.391,8.555-8.55l-2.849-0.766
		C180.007,20.701,177.528,23.179,174.385,24.021z"/>
</g>
</svg>
